<svg width="805" height="782" viewBox="0 0 805 782" fill="none" xmlns="http://www.w3.org/2000/svg">
<path d="M756.855 215.792C749.324 202.206 740.968 189.093 731.834 176.527C725.434 167.711 718.671 159.19 711.546 150.962H711.529C698.636 136.068 684.614 122.19 669.589 109.451C666.514 106.839 663.397 104.281 660.238 101.776C631.729 79.0949 600.113 60.621 566.357 46.9188L566.656 96.246L569.886 658.549H289.922L274.177 97.307L275.35 48.7675C138.093 106.495 41.7176 242.223 41.7176 400.469C41.692 433.131 45.8591 465.662 54.1168 497.264C57.6046 510.623 61.8273 523.779 66.7655 536.672C68.5482 541.352 70.429 545.99 72.4078 550.586C73.3616 552.824 74.3333 555.043 75.3405 557.254C76.633 560.142 77.979 563.021 79.3607 565.865C80.4303 568.102 81.5297 570.325 82.6588 572.532C84.1117 575.429 85.6122 578.302 87.1603 581.152C88.3547 583.389 89.5848 585.609 90.8328 587.819C110.966 623.431 136.675 655.587 166.983 683.064C175.621 690.899 184.609 698.327 193.948 705.348C260.025 755 340.442 781.846 423.095 781.846C505.748 781.846 586.165 755 652.243 705.348C657.324 701.533 662.3 697.59 667.173 693.519C670.409 690.827 673.591 688.085 676.72 685.292C677.549 684.552 678.378 683.812 679.198 683.064C707.141 657.733 731.188 628.414 750.562 596.056C757.677 584.193 764.129 571.944 769.887 559.367C771.412 556.051 772.888 552.705 774.317 549.33C780.896 533.854 786.429 517.955 790.879 501.739C791.566 499.234 792.228 496.72 792.867 494.198V494.189C792.974 493.752 793.09 493.306 793.197 492.87C793.857 490.213 794.489 487.539 795.096 484.865V484.856C797.057 476.236 798.712 467.513 800.061 458.685C800.23 457.553 800.399 456.421 800.56 455.289C800.622 454.879 800.685 454.469 800.729 454.059V454.05C801.692 447.231 802.473 440.361 803.073 433.441C804 422.575 804.467 411.584 804.473 400.469C804.574 335.861 788.184 272.296 756.855 215.792V215.792Z" fill="#F2F2F2"/>
<path d="M719.402 630.685C741.975 600.184 750.656 557.222 733.097 523.584C716.629 561.42 687.309 592.212 650.324 610.511C636.035 617.517 619.412 623.821 612.798 638.295C608.682 647.302 609.466 657.937 612.774 667.269C616.083 676.603 621.71 684.907 627.278 693.096L627.571 695.55C662.623 681.017 696.828 661.186 719.402 630.685Z" fill="#E6E6E6"/>
<path d="M732.348 523.854C731.337 555.246 720.46 585.521 701.262 610.379C697.224 615.804 692.357 620.558 686.838 624.467C681.34 628.101 674.968 630.197 668.386 630.536C662.255 630.975 655.933 630.715 650.016 632.637C647.001 633.665 644.238 635.32 641.908 637.491C639.578 639.663 637.733 642.302 636.495 645.237C633.219 652.468 632.736 660.446 632.536 668.263C632.313 676.943 632.219 685.963 628.125 693.853C627.629 694.809 629.141 695.523 629.636 694.568C636.76 680.84 632.134 664.786 636.379 650.355C638.36 643.621 642.382 637.443 649.105 634.744C654.984 632.385 661.504 632.648 667.715 632.257C674.141 632.02 680.412 630.214 685.979 626.995C691.678 623.38 696.721 618.821 700.891 613.514C710.469 601.715 718.133 588.484 723.602 574.304C729.932 558.156 733.454 541.044 734.014 523.709C734.049 522.636 732.382 522.788 732.348 523.854V523.854Z" fill="white"/>
<path d="M707.915 602.739C712.523 605.393 717.924 606.324 723.155 605.364C728.385 604.403 733.104 601.615 736.469 597.497C737.147 596.661 735.88 595.569 735.201 596.405C732.075 600.246 727.679 602.843 722.807 603.727C717.934 604.611 712.906 603.724 708.63 601.227C707.7 600.685 706.99 602.2 707.915 602.739Z" fill="white"/>
<path d="M671.524 630.722C668.607 620.25 669.744 609.063 674.709 599.392C675.202 598.434 673.69 597.72 673.197 598.677C668.05 608.75 666.89 620.395 669.949 631.286C670.242 632.323 671.815 631.755 671.524 630.722H671.524Z" fill="white"/>
<path d="M727.716 558.234C725.719 557.578 723.916 556.437 722.47 554.912C721.023 553.388 719.977 551.528 719.427 549.499C719.148 548.458 717.575 549.028 717.852 550.062C718.471 552.301 719.628 554.353 721.223 556.041C722.817 557.729 724.801 559.001 727.001 559.746C727.202 559.833 727.429 559.841 727.636 559.767C727.843 559.693 728.014 559.543 728.114 559.347C728.208 559.147 728.219 558.917 728.144 558.709C728.07 558.5 727.916 558.33 727.716 558.234V558.234Z" fill="white"/>
<path d="M607.441 496.815C607.597 497.47 607.753 498.125 607.899 498.79C609.947 507.607 611.276 516.576 611.872 525.608C611.929 526.306 611.976 527.014 612.013 527.712C613.217 549.487 610.367 571.297 603.608 592.033C600.912 600.281 597.591 608.313 593.676 616.058C588.268 626.753 581.553 637.92 580.039 649.438C579.867 650.638 579.77 651.848 579.749 653.059L624.554 695.718C624.704 695.764 624.846 695.82 624.997 695.866L626.708 697.652C626.938 697.266 627.168 696.862 627.398 696.476C627.532 696.253 627.656 696.021 627.79 695.798C627.877 695.646 627.963 695.494 628.049 695.362C628.078 695.312 628.106 695.261 628.126 695.221C628.212 695.089 628.279 694.957 628.356 694.835C629.648 692.577 630.927 690.306 632.192 688.022C632.202 688.012 632.202 688.012 632.201 687.992C641.797 670.565 650.022 652.183 655.195 633.137C655.35 632.564 655.516 631.981 655.651 631.388C657.935 622.791 659.513 614.02 660.368 605.165C660.821 600.315 661.028 595.445 660.988 590.574C660.862 577.988 658.756 565.5 654.749 553.568C646.757 529.784 631.247 508.82 609.139 497.651C608.573 497.366 608.017 497.09 607.441 496.815Z" fill="#E6E6E6"/>
<path d="M607 497.479C625.093 523.153 634.636 553.874 634.274 585.28C634.316 592.043 633.292 598.77 631.24 605.213C629.037 611.425 625.212 616.934 620.16 621.168C615.529 625.21 610.325 628.808 606.757 633.906C604.97 636.542 603.76 639.526 603.207 642.663C602.654 645.8 602.77 649.018 603.548 652.107C605.286 659.853 609.704 666.513 614.25 672.876C619.298 679.941 624.654 687.198 626.135 695.964C626.315 697.026 627.952 696.685 627.773 695.625C625.195 680.375 611.837 670.341 606.537 656.263C604.064 649.693 603.556 642.339 607.299 636.137C610.573 630.713 615.937 626.998 620.661 622.946C625.649 618.888 629.568 613.671 632.075 607.749C634.449 601.431 635.731 594.755 635.865 588.007C636.409 572.819 634.562 557.641 630.391 543.027C625.724 526.322 618.233 510.539 608.243 496.36C607.625 495.483 606.386 496.608 607 497.479V497.479Z" fill="white"/>
<path d="M634.986 575.175C640.263 574.52 645.136 572.011 648.734 568.095C652.333 564.179 654.422 559.112 654.629 553.798C654.667 552.723 652.998 552.613 652.959 553.69C652.776 558.638 650.829 563.358 647.471 566.998C644.113 570.637 639.565 572.957 634.647 573.537C633.578 573.664 633.923 575.301 634.986 575.175H634.986Z" fill="white"/>
<path d="M622.778 619.428C614.144 612.823 608.317 603.206 606.458 592.495C606.275 591.433 604.637 591.774 604.821 592.834C606.775 603.976 612.86 613.972 621.86 620.825C622.718 621.478 623.632 620.077 622.778 619.428V619.428Z" fill="white"/>
<path d="M624.001 527.718C622.012 528.397 619.885 528.571 617.812 528.225C615.739 527.879 613.784 527.023 612.124 525.735C611.274 525.072 610.361 526.474 611.206 527.133C613.047 528.547 615.207 529.49 617.496 529.877C619.786 530.265 622.136 530.086 624.34 529.356C624.554 529.305 624.74 529.174 624.86 528.99C624.981 528.807 625.027 528.584 624.989 528.368C624.943 528.151 624.814 527.961 624.629 527.84C624.444 527.718 624.218 527.675 624.001 527.718Z" fill="white"/>
<path d="M17.8042 459.858C-2.21584 427.624 -7.37712 384.098 12.8578 351.998C26.1965 391.048 52.9175 424.12 88.2931 445.365C101.966 453.508 118.021 461.142 123.437 476.107C126.807 485.418 125.161 495.954 121.106 504.987C117.049 514.02 110.766 521.84 104.551 529.549L104.059 531.972C70.3043 514.638 37.8242 492.092 17.8042 459.858Z" fill="#E6E6E6"/>
<path d="M13.5824 352.328C12.0394 383.698 20.4199 414.757 37.5338 441.093C41.1174 446.828 45.5825 451.962 50.7649 456.307C55.9499 460.376 62.1299 462.982 68.6629 463.855C74.7379 464.791 81.0603 465.045 86.8019 467.442C89.7227 468.712 92.342 470.586 94.488 472.939C96.6339 475.293 98.2581 478.074 99.2541 481.099C101.932 488.573 101.764 496.563 101.329 504.371C100.845 513.041 100.206 522.038 103.645 530.235C104.062 531.228 102.497 531.817 102.081 530.825C96.0965 516.563 102.011 500.939 98.9531 486.21C97.5261 479.337 94.0193 472.853 87.538 469.617C81.8704 466.787 75.3509 466.519 69.1916 465.625C62.8061 464.867 56.7032 462.557 51.4162 458.896C46.0294 454.83 41.3739 449.876 37.6491 444.248C29.0612 431.71 22.498 417.899 18.2001 403.323C13.2026 386.713 11.0832 369.372 11.9335 352.048C11.9865 350.976 13.6352 351.263 13.5824 352.328L13.5824 352.328Z" fill="white"/>
<path d="M31.5241 432.938C26.7157 435.209 21.2564 435.697 16.1213 434.315C10.9861 432.933 6.50938 429.771 3.49062 425.393C2.88285 424.505 4.23412 423.519 4.8427 424.408C7.64624 428.49 11.8166 431.435 16.6011 432.712C21.3856 433.99 26.4691 433.514 30.934 431.373C31.9049 430.908 32.4894 432.476 31.5241 432.938V432.938Z" fill="white"/>
<path d="M65.5202 463.786C69.2786 453.585 69.0542 442.343 64.8919 432.301C64.4787 431.306 66.044 430.717 66.4567 431.711C70.7687 442.169 70.9784 453.869 67.0439 464.475C66.6682 465.486 65.1465 464.791 65.5202 463.786V463.786Z" fill="white"/>
<path d="M15.4051 386.971C17.4487 386.48 19.3384 385.489 20.9043 384.087C22.4702 382.685 23.6634 380.916 24.3767 378.939C24.7394 377.924 26.2608 378.619 25.9004 379.628C25.1022 381.808 23.782 383.76 22.0554 385.313C20.3287 386.866 18.248 387.972 15.9952 388.536C15.7873 388.607 15.5602 388.596 15.3601 388.505C15.1599 388.415 15.0018 388.251 14.9177 388.048C14.8406 387.841 14.8486 387.611 14.9399 387.409C15.0311 387.208 15.1983 387.05 15.4051 386.971V386.971Z" fill="white"/>
<path d="M140.274 335.529C140.065 336.169 139.857 336.81 139.657 337.461C136.899 346.083 134.846 354.914 133.518 363.868C133.404 364.558 133.299 365.26 133.206 365.952C130.237 387.558 131.305 409.528 136.356 430.744C138.373 439.184 141.03 447.459 144.303 455.496C148.824 466.596 154.609 478.271 155.182 489.875C155.255 491.085 155.254 492.298 155.177 493.508L107.053 532.384C106.899 532.417 106.754 532.462 106.6 532.496L104.749 534.136C104.551 533.733 104.355 533.311 104.157 532.909C104.042 532.675 103.937 532.434 103.821 532.2C103.747 532.042 103.674 531.884 103.598 531.745C103.574 531.693 103.549 531.64 103.533 531.598C103.458 531.459 103.402 531.323 103.336 531.195C102.231 528.84 101.141 526.472 100.066 524.093C100.057 524.082 100.057 524.082 100.059 524.062C91.9114 505.912 85.2077 486.923 81.5994 467.52C81.491 466.936 81.3732 466.342 81.2868 465.74C79.7089 456.985 78.8491 448.115 78.7161 439.22C78.659 434.349 78.8485 429.479 79.2839 424.627C80.433 412.093 83.5464 399.817 88.5101 388.251C98.4085 365.194 115.571 345.56 138.514 336.225C139.101 335.987 139.678 335.757 140.274 335.529Z" fill="#E6E6E6"/>
<path d="M140.659 336.227C120.54 360.346 108.532 390.19 106.34 421.522C105.748 428.258 106.222 435.046 107.745 441.635C109.435 448.006 112.8 453.807 117.491 458.437C121.778 462.842 126.673 466.852 129.814 472.222C131.382 474.995 132.345 478.068 132.641 481.239C132.938 484.411 132.56 487.609 131.534 490.624C129.172 498.204 124.228 504.482 119.179 510.455C113.574 517.086 107.646 523.884 105.457 532.5C105.192 533.544 103.587 533.072 103.852 532.029C107.661 517.039 121.791 508.125 128.217 494.523C131.215 488.177 132.319 480.888 129.092 474.402C126.271 468.73 121.227 464.592 116.847 460.169C112.205 455.719 108.723 450.2 106.706 444.095C104.853 437.605 104.118 430.846 104.533 424.11C105.225 408.928 108.299 393.95 113.644 379.724C119.653 363.453 128.402 348.331 139.511 335.011C140.199 334.187 141.342 335.409 140.659 336.227V336.227Z" fill="white"/>
<path d="M106.452 411.392C101.245 410.31 96.5922 407.413 93.3241 403.218C90.056 399.023 88.3856 393.802 88.6112 388.489C88.6224 388.273 88.7172 388.069 88.8757 387.921C89.0342 387.773 89.244 387.692 89.4609 387.696C89.6777 387.699 89.8847 387.787 90.0382 387.94C90.1917 388.093 90.2798 388.3 90.2838 388.517C90.0646 393.464 91.6211 398.327 94.6723 402.227C97.7235 406.127 102.068 408.809 106.923 409.787C107.978 410.001 107.501 411.604 106.452 411.392V411.392Z" fill="white"/>
<path d="M115.023 456.49C124.165 450.609 130.755 441.497 133.478 430.973C133.747 429.93 135.351 430.402 135.082 431.444C132.228 442.39 125.352 451.858 115.825 457.958C114.916 458.539 114.119 457.068 115.023 456.49V456.49Z" fill="white"/>
<path d="M121.257 364.985C123.184 365.823 125.29 366.169 127.384 365.993C129.479 365.816 131.496 365.122 133.256 363.973C134.157 363.381 134.953 364.853 134.058 365.441C132.108 366.701 129.878 367.465 127.565 367.665C125.251 367.866 122.924 367.496 120.786 366.59C120.577 366.521 120.403 366.376 120.297 366.183C120.192 365.99 120.164 365.764 120.219 365.552C120.283 365.34 120.427 365.161 120.621 365.055C120.816 364.949 121.044 364.924 121.257 364.985V364.985Z" fill="white"/>
<path d="M389.439 130.818C418.702 130.818 442.424 107.096 442.424 77.8331C442.424 48.5701 418.702 24.8477 389.439 24.8477C360.176 24.8477 336.454 48.5701 336.454 77.8331C336.454 107.096 360.176 130.818 389.439 130.818Z" fill="#FF6584"/>
<path d="M551.669 75.0682C546.895 70.0245 541.854 65.2398 536.569 60.7347C526.247 51.9814 514.819 44.5383 502.081 39.8496C497.286 38.0786 492.33 36.7741 487.284 35.9543C486.678 35.8563 486.081 35.7582 485.475 35.678C485.43 35.6735 485.386 35.6735 485.341 35.678C485.248 35.6516 485.152 35.6337 485.056 35.6245C483.817 35.464 482.578 35.3392 481.33 35.2501C474.609 34.8033 467.86 35.4109 461.327 37.0507C457.537 38.007 453.838 39.2956 450.274 40.9014C446.704 42.6495 443.242 44.6111 439.907 46.7757C438.117 47.8634 436.272 48.86 434.381 49.7618C428.859 52.3781 423.014 54.2485 416.999 55.324C412.937 56.0527 408.824 56.4581 404.698 56.5363C401.114 56.6076 397.736 56.7324 394.34 58.0249C390.715 59.3868 387.46 61.5777 384.833 64.4224C382.207 67.2672 380.282 70.687 379.213 74.4085C379.129 74.739 379.153 75.0878 379.281 75.4038C379.409 75.7198 379.635 75.9863 379.926 76.1645C380.844 76.8242 381.736 77.5729 382.707 78.1612C383.565 78.5525 384.48 78.8024 385.417 78.901C386.95 79.222 388.487 79.534 390.026 79.837C395.686 80.9601 401.37 81.9555 407.078 82.8232C418.559 84.5614 430.105 85.7855 441.717 86.4956C441.788 86.506 441.859 86.512 441.931 86.5135C455.049 87.3052 468.199 87.4332 481.33 86.8968C483.318 86.8165 485.296 86.7185 487.284 86.6026C495.565 86.1391 503.825 85.4081 512.065 84.4098C519.686 83.4828 527.278 82.3329 534.839 80.9602C540.241 79.9797 545.622 78.8862 550.982 77.6799C551.243 77.6028 551.479 77.46 551.668 77.2651C551.857 77.0702 551.992 76.8299 552.061 76.5673C552.13 76.3048 552.13 76.0289 552.062 75.7663C551.993 75.5036 551.858 75.2632 551.669 75.0682V75.0682Z" fill="#E6E6E6"/>
<path d="M441.539 145.719C433.868 137.513 425.416 130.074 416.304 123.506C413.282 121.384 410.171 119.388 406.971 117.56C403.047 115.296 398.973 113.303 394.777 111.597C393.841 111.214 392.896 110.848 391.951 110.501C386.583 108.512 381.015 107.114 375.345 106.329C375.3 106.32 375.255 106.329 375.211 106.32C375.122 106.302 375.024 106.284 374.935 106.266C372.186 105.91 369.416 105.74 366.645 105.758C364.657 105.758 362.66 105.865 360.681 106.061C357.484 106.376 354.314 106.925 351.197 107.702C349.655 108.085 348.122 108.531 346.615 109.039C344.418 109.762 342.261 110.601 340.153 111.552C340.117 111.57 340.09 111.579 340.055 111.597C336.516 113.328 333.087 115.275 329.786 117.427C329.715 117.471 329.635 117.516 329.563 117.56C325.814 119.803 321.848 121.66 317.726 123.105C314.187 124.342 310.557 125.302 306.869 125.975C302.807 126.706 298.694 127.108 294.568 127.178C290.984 127.25 287.606 127.374 284.219 128.676C280.593 130.037 277.336 132.228 274.708 135.073C272.08 137.918 270.154 141.337 269.083 145.059C269 145.39 269.025 145.738 269.153 146.054C269.281 146.369 269.507 146.636 269.796 146.815C270.714 147.475 271.615 148.215 272.577 148.803C273.434 149.198 274.349 149.447 275.287 149.543C276.82 149.864 278.353 150.185 279.895 150.488C285.556 151.611 291.243 152.603 296.957 153.465C304.792 154.651 312.66 155.599 320.56 156.309C324.304 156.656 328.051 156.942 331.801 157.164C341.419 157.744 351.046 157.97 360.681 157.842C362.669 157.815 364.657 157.771 366.645 157.708C378.447 157.36 390.213 156.475 401.943 155.052C415.019 153.47 428.005 151.224 440.852 148.322C441.112 148.246 441.348 148.104 441.537 147.91C441.726 147.716 441.861 147.476 441.93 147.214C441.999 146.952 441.999 146.677 441.931 146.415C441.862 146.153 441.727 145.913 441.539 145.719V145.719Z" fill="#E6E6E6"/>
<path d="M309.468 3.51782L356.147 648.574L262.789 656.86V11.7248C273.914 3.03516 289.883 1.67565 309.468 3.51782Z" fill="#CCCCCC"/>
<path d="M539.883 3.51782L493.204 648.574L586.562 656.86V11.7248C575.438 3.03516 559.469 1.67565 539.883 3.51782Z" fill="#CCCCCC"/>
<path d="M588.759 12.0063C585.862 4.90352 579.702 0 572.58 0H275.777C265.873 0 257.824 9.5019 257.824 21.1925V662.326C257.738 668.257 259.955 673.991 264.01 678.32C266.132 680.548 268.818 682.159 271.783 682.982C273.084 683.341 274.427 683.522 275.777 683.518H572.58C573.929 683.522 575.273 683.341 576.573 682.982C584.56 680.835 590.532 672.396 590.532 662.326V21.1925C590.541 18.0446 589.938 14.9249 588.759 12.0063V12.0063ZM584.578 662.326C584.578 670.133 579.194 676.489 572.58 676.489H275.777C270.295 676.489 265.651 672.122 264.233 666.177C263.93 664.916 263.778 663.623 263.779 662.326V21.1925C263.779 13.3848 269.163 7.03967 275.777 7.03967H572.58C573.797 7.03871 575.005 7.2561 576.145 7.68154C581.021 9.4704 584.578 14.8474 584.578 21.1925V662.326Z" fill="#CCCCCC"/>
<path d="M587.555 194.882H260.803V200.841H587.555V194.882Z" fill="#CCCCCC"/>
<path d="M587.555 71.8715H260.803V77.8305H587.555V71.8715Z" fill="#CCCCCC"/>
<path d="M587.555 294.199H260.803V300.158H587.555V294.199Z" fill="#CCCCCC"/>
<path d="M366.837 2.67413H360.878V378.618H366.837V2.67413Z" fill="#CCCCCC"/>
<path d="M487.48 2.67413H481.521V378.618H487.48V2.67413Z" fill="#CCCCCC"/>
<path d="M624.797 646.276H233.489C226.381 646.285 219.566 649.112 214.539 654.139C209.513 659.165 206.685 665.98 206.677 673.089C206.673 676.507 207.33 679.894 208.611 683.064C210.602 688.035 214.035 692.296 218.469 695.299C222.903 698.301 228.134 699.908 233.489 699.911H624.797C629.478 699.909 634.077 698.682 638.136 696.352C642.196 694.022 645.575 690.67 647.937 686.629C648.61 685.487 649.194 684.295 649.684 683.064C650.965 679.894 651.622 676.507 651.619 673.089C651.608 665.98 648.779 659.164 643.751 654.138C638.723 649.112 631.907 646.284 624.797 646.276Z" fill="#CCCCCC"/>
<path d="M587.555 364.714H262.789V384.577H587.555V364.714Z" fill="#CCCCCC"/>
<path d="M422.193 358.755H428.152C431.049 358.755 433.828 359.906 435.877 361.955C437.926 364.004 439.077 366.782 439.077 369.68V369.68H411.268C411.268 368.245 411.55 366.824 412.099 365.499C412.648 364.173 413.453 362.969 414.468 361.955C415.482 360.94 416.686 360.136 418.012 359.586C419.337 359.037 420.758 358.755 422.193 358.755V358.755Z" fill="#CCCCCC"/>
<path d="M430.901 420.733C464.893 420.733 492.449 393.177 492.449 359.185C492.449 325.193 464.893 297.638 430.901 297.638C396.909 297.638 369.354 325.193 369.354 359.185C369.354 393.177 396.909 420.733 430.901 420.733Z" fill="#8E572F"/>
<path d="M362.243 299.976C362.708 292.908 367.382 285.675 382.233 281.896C382.233 281.896 407.718 249.306 442.351 266.397C442.351 266.397 459.14 263.508 471.59 280.928C471.59 280.928 483.934 273.648 489.141 286.552C489.141 286.552 503.618 312.872 498.288 339.719C492.959 366.566 490.231 369.916 490.231 369.916C490.231 369.916 497.024 314.384 457.896 318.235C418.767 322.085 387.265 308.325 378.404 338.453C371.046 363.469 371.973 376.462 371.973 376.462C371.973 376.462 347.368 351.506 355.734 331.854C360.012 321.803 361.525 310.876 362.243 299.976Z" fill="#2F2E41"/>
<path d="M263.529 695.543H603.967C601.691 669.574 600.204 570.308 600.204 563.774C600.204 534.959 576.625 503.512 576.625 503.512L568.185 498.847L497.703 476.857L479.463 453.163C477.553 450.675 475.092 448.664 472.273 447.288C469.454 445.911 466.355 445.208 463.218 445.232L405.599 445.664C400.529 445.703 395.656 447.634 391.935 451.079L356.255 484.178L303.924 509.168L303.835 509.079L303.288 509.486L295.522 515.079L290.527 518.689C290.527 518.689 277.422 534.412 266.948 581.57C265.372 588.662 264.266 680.48 263.529 695.543Z" fill="#6C63FF"/>
<path d="M682.764 683.064C681.944 683.812 681.115 684.552 680.286 685.292C677.148 688.082 673.966 690.825 670.739 693.52C665.863 697.584 660.886 701.527 655.808 705.348H197.513C188.181 698.342 179.192 690.914 170.549 683.064H682.764Z" fill="#CCCCCC"/>
<path d="M514.774 688.412H346.303L349.868 671.476H511.208L514.774 688.412Z" fill="#2F2E41"/>
<path d="M667.191 615.319H623.353C622.364 615.316 621.386 615.53 620.488 615.946C619.59 616.361 618.794 616.969 618.156 617.725C617.545 617.607 616.925 617.548 616.302 617.547C614.936 617.546 613.583 617.814 612.32 618.336C611.057 618.858 609.91 619.623 608.943 620.589C607.977 621.555 607.21 622.701 606.687 623.964C606.163 625.226 605.894 626.579 605.894 627.945C605.894 629.311 606.163 630.664 606.687 631.927C607.21 633.189 607.977 634.335 608.943 635.301C609.91 636.267 611.057 637.032 612.32 637.554C613.583 638.076 614.936 638.344 616.302 638.343C617.872 638.343 619.421 637.983 620.831 637.291L621.561 646.276L624.467 681.789C624.605 682.232 624.791 682.66 625.02 683.064C625.607 684.142 626.474 685.042 627.53 685.67C628.586 686.297 629.791 686.629 631.019 686.629H659.525C660.754 686.628 661.96 686.296 663.017 685.669C664.074 685.041 664.943 684.142 665.533 683.064C665.756 682.658 665.938 682.231 666.077 681.789L673.743 624.188C674.058 623.163 674.128 622.078 673.948 621.021C673.768 619.963 673.342 618.963 672.705 618.1C672.067 617.238 671.237 616.537 670.279 616.053C669.321 615.57 668.264 615.319 667.191 615.319ZM616.302 635.375C614.333 635.372 612.446 634.589 611.054 633.196C609.663 631.802 608.881 629.914 608.881 627.945C608.881 625.976 609.663 624.088 611.054 622.694C612.446 621.301 614.333 620.518 616.302 620.515C616.436 620.515 616.561 620.551 616.694 620.56C616.401 621.757 616.438 623.011 616.801 624.188L619.939 634.385C618.834 635.027 617.58 635.369 616.302 635.375V635.375Z" fill="#33412E"/>
<path d="M568.176 426.854H290.672C288.287 426.858 286.002 427.806 284.316 429.492C282.63 431.178 281.681 433.464 281.678 435.848V623.109C281.68 625.494 282.628 627.78 284.314 629.466C286.001 631.153 288.287 632.101 290.672 632.103H568.176C570.561 632.101 572.848 631.153 574.534 629.466C576.22 627.78 577.168 625.494 577.171 623.109V435.848C577.167 433.464 576.218 431.178 574.532 429.492C572.846 427.806 570.561 426.858 568.176 426.854Z" fill="#3F3D56"/>
<path d="M460.676 576.9H395.757C394.838 576.901 393.958 577.267 393.309 577.918C392.661 578.568 392.297 579.449 392.298 580.367V682.921H464.143V580.367C464.144 579.912 464.054 579.461 463.88 579.04C463.706 578.619 463.45 578.237 463.128 577.915C462.806 577.593 462.424 577.338 462.003 577.164C461.582 576.989 461.131 576.9 460.676 576.9V576.9ZM428.435 635.17C426.404 635.16 424.46 634.35 423.025 632.914C421.589 631.478 420.778 629.534 420.769 627.504V615.675C420.771 613.644 421.58 611.696 423.017 610.26C424.455 608.824 426.403 608.018 428.435 608.018C430.466 608.018 432.415 608.824 433.852 610.26C435.29 611.696 436.098 613.644 436.101 615.675V627.504C436.091 629.534 435.28 631.478 433.845 632.914C432.409 634.35 430.465 635.16 428.435 635.17V635.17Z" fill="#2F2E41"/>
<path d="M392.075 679.641V689.535C392.076 690.048 392.28 690.539 392.643 690.902C393.005 691.264 393.497 691.468 394.01 691.469H462.432C462.944 691.467 463.435 691.262 463.797 690.9C464.159 690.538 464.364 690.047 464.366 689.535V679.641H392.075Z" fill="#3F3D56"/>
<path d="M562.275 621.152C564.695 621.152 566.656 619.19 566.656 616.771C566.656 614.351 564.695 612.39 562.275 612.39C559.856 612.39 557.895 614.351 557.895 616.771C557.895 619.19 559.856 621.152 562.275 621.152Z" fill="#2F2E41"/>
<path d="M325.703 610.416C325.502 610.416 325.302 610.456 325.116 610.533C324.93 610.61 324.761 610.723 324.619 610.865C324.476 611.007 324.363 611.176 324.286 611.362C324.209 611.548 324.17 611.748 324.17 611.949V619.838C324.171 620.244 324.333 620.633 324.62 620.919C324.908 621.206 325.297 621.367 325.703 621.367C326.109 621.367 326.498 621.206 326.786 620.919C327.073 620.633 327.235 620.244 327.236 619.838V611.949C327.236 611.748 327.196 611.548 327.119 611.362C327.042 611.176 326.929 611.007 326.787 610.865C326.645 610.723 326.476 610.61 326.29 610.533C326.104 610.456 325.904 610.416 325.703 610.416V610.416Z" fill="#2F2E41"/>
<path d="M334.028 610.416C333.827 610.416 333.628 610.456 333.442 610.533C333.256 610.61 333.087 610.723 332.944 610.865C332.802 611.007 332.689 611.176 332.612 611.362C332.535 611.548 332.495 611.748 332.495 611.949V619.838C332.495 620.245 332.657 620.635 332.944 620.922C333.232 621.21 333.622 621.371 334.028 621.371C334.435 621.371 334.825 621.21 335.113 620.922C335.4 620.635 335.562 620.245 335.562 619.838V611.949C335.562 611.748 335.522 611.548 335.445 611.362C335.368 611.176 335.255 611.007 335.113 610.865C334.97 610.723 334.801 610.61 334.615 610.533C334.429 610.456 334.23 610.416 334.028 610.416V610.416Z" fill="#2F2E41"/>
<path d="M342.354 610.416C342.153 610.416 341.953 610.456 341.767 610.533C341.581 610.61 341.412 610.723 341.27 610.865C341.127 611.007 341.014 611.176 340.937 611.362C340.86 611.548 340.821 611.748 340.821 611.949V619.838C340.822 620.244 340.984 620.633 341.271 620.919C341.559 621.206 341.948 621.367 342.354 621.367C342.76 621.367 343.149 621.206 343.437 620.919C343.724 620.633 343.886 620.244 343.887 619.838V611.949C343.887 611.748 343.847 611.548 343.77 611.362C343.693 611.176 343.58 611.007 343.438 610.865C343.296 610.723 343.127 610.61 342.941 610.533C342.755 610.456 342.555 610.416 342.354 610.416Z" fill="#2F2E41"/>
<path d="M350.679 610.416C350.478 610.416 350.279 610.456 350.093 610.533C349.907 610.61 349.738 610.723 349.595 610.865C349.453 611.007 349.34 611.176 349.263 611.362C349.186 611.548 349.146 611.748 349.146 611.949V619.838C349.147 620.244 349.309 620.633 349.597 620.919C349.884 621.206 350.274 621.367 350.679 621.367C351.085 621.367 351.475 621.206 351.762 620.919C352.05 620.633 352.212 620.244 352.213 619.838V611.949C352.213 611.748 352.173 611.548 352.096 611.362C352.019 611.176 351.906 611.007 351.764 610.865C351.621 610.723 351.452 610.61 351.266 610.533C351.08 610.456 350.881 610.416 350.679 610.416V610.416Z" fill="#2F2E41"/>
<path d="M357.322 683.955C370.122 683.955 380.498 673.579 380.498 660.779C380.498 647.979 370.122 637.603 357.322 637.603C344.522 637.603 334.146 647.979 334.146 660.779C334.146 673.579 344.522 683.955 357.322 683.955Z" fill="#8E572F"/>
<path d="M519.231 688.412C532.03 688.412 542.407 678.036 542.407 665.236C542.407 652.436 532.03 642.06 519.231 642.06C506.431 642.06 496.055 652.436 496.055 665.236C496.055 678.036 506.431 688.412 519.231 688.412Z" fill="#8E572F"/>
<path d="M758.448 385.496C756.158 381.708 753.444 377.664 749.194 376.427C744.272 374.994 739.216 377.84 734.928 380.648C722.102 389.045 709.751 398.145 697.931 407.906L697.944 408.053C707.147 407.418 714.784 431.888 723.986 431.253C730.635 430.795 739.077 405.169 744.953 402.024C747.183 400.83 749.356 399.236 751.883 399.125C755.022 398.987 757.759 401.179 759.91 403.469C772.633 417.018 776.315 437.737 790.589 449.64C781.588 427.443 770.841 405.994 758.448 385.496V385.496Z" fill="#3F3D56"/>
<path d="M782.937 418.403C789.649 430.526 796.768 442.408 804.295 454.05V454.059C804.25 454.469 804.188 454.879 804.125 455.289C803.216 453.898 802.316 452.502 801.424 451.099C794.668 440.501 788.247 429.7 782.162 418.698C779.274 413.465 776.457 408.191 773.711 402.876C771.59 398.757 769.513 394.615 767.481 390.45C766.901 389.255 766.34 388.061 765.778 386.858C764.459 384.041 763.157 381.206 761.767 378.425C760.18 375.252 758.246 371.936 755.331 369.805C754.005 368.795 752.419 368.183 750.758 368.04C748.418 368.055 746.127 368.711 744.135 369.939C729.056 377.865 714.982 387.57 702.214 398.847C689.43 410.078 678.002 422.766 668.163 436.65C667.86 437.078 667.147 436.668 667.45 436.231C668.653 434.537 669.865 432.871 671.113 431.213C686.58 410.645 705.543 392.958 727.137 378.96C730.765 376.607 734.464 374.363 738.234 372.23C740.133 371.151 742.041 370.091 743.984 369.092C745.844 368.002 747.93 367.355 750.081 367.202C757.479 367.087 761.312 375.466 763.942 381.099C764.762 382.873 765.597 384.644 766.446 386.412C769.646 393.097 772.971 399.729 776.421 406.307C778.543 410.363 780.715 414.395 782.937 418.403Z" fill="#3F3D56"/>
<path d="M701.486 394.708C701.056 394.229 700.629 393.75 700.197 393.271C696.786 389.499 693.126 385.77 688.442 383.608C686.208 382.544 683.77 381.979 681.297 381.951C678.745 382.021 676.228 382.57 673.878 383.569C672.761 384.015 671.669 384.522 670.593 385.061C669.364 385.68 668.157 386.34 666.955 387.005C664.699 388.253 662.473 389.556 660.276 390.914C655.904 393.616 651.669 396.524 647.571 399.638C645.447 401.253 643.366 402.922 641.329 404.643C639.435 406.241 637.579 407.883 635.761 409.567C635.373 409.926 634.792 409.346 635.181 408.987C635.66 408.541 636.145 408.097 636.629 407.659C637.998 406.422 639.389 405.208 640.801 404.018C643.377 401.845 646.02 399.755 648.729 397.749C652.942 394.629 657.3 391.72 661.803 389.022C664.053 387.675 666.335 386.385 668.647 385.151C669.345 384.779 670.051 384.415 670.766 384.07C672.387 383.252 674.071 382.567 675.803 382.02C678.255 381.226 680.85 380.971 683.41 381.272C685.882 381.632 688.264 382.456 690.429 383.701C695.028 386.271 698.595 390.246 702.066 394.125C702.417 394.519 701.839 395.102 701.486 394.708Z" fill="#3F3D56"/>
<path d="M667.832 412.858C666.663 412.916 665.508 412.585 664.547 411.917C662.001 409.989 662.068 405.358 664.75 397.758C665.48 395.699 666.625 393.812 668.113 392.213C669.601 390.613 671.401 389.336 673.402 388.459C675.277 387.621 677.305 387.182 679.359 387.17C681.412 387.158 683.446 387.573 685.331 388.388C685.66 388.531 685.984 388.685 686.304 388.849C688.485 390.07 690.53 391.521 692.403 393.177C693.996 394.558 695.694 395.813 697.483 396.929L698.081 397.279L697.515 397.677C683.075 407.843 673.286 412.858 667.832 412.858Z" fill="#3F3D56"/>
<path d="M723.357 352.361C718.609 352.36 714.008 350.712 710.34 347.697C706.672 344.682 704.164 340.488 703.243 335.83C699.273 336.634 695.63 338.596 692.774 341.468C689.918 344.34 687.977 347.994 687.195 351.969C686.413 355.943 686.827 360.06 688.383 363.8C689.939 367.54 692.567 370.735 695.938 372.982C699.308 375.229 703.268 376.428 707.318 376.427C711.369 376.425 715.329 375.224 718.697 372.975C722.066 370.725 724.693 367.529 726.246 363.788C727.8 360.047 728.21 355.93 727.426 351.956C726.087 352.225 724.724 352.361 723.357 352.361V352.361Z" fill="#3F3D56"/>
<path opacity="0.74" d="M174.554 385.342C191.451 385.342 205.148 371.645 205.148 354.748C205.148 337.851 191.451 324.153 174.554 324.153C157.657 324.153 143.959 337.851 143.959 354.748C143.959 371.645 157.657 385.342 174.554 385.342Z" fill="#3F3D56"/>
<path opacity="0.74" d="M205.148 385.342C222.045 385.342 235.743 371.645 235.743 354.748C235.743 337.851 222.045 324.153 205.148 324.153C188.251 324.153 174.554 337.851 174.554 354.748C174.554 371.645 188.251 385.342 205.148 385.342Z" fill="#6C63FF"/>
<path opacity="0.74" d="M190.11 360.959C207.007 360.959 220.704 347.261 220.704 330.364C220.704 313.467 207.007 299.77 190.11 299.77C173.213 299.77 159.515 313.467 159.515 330.364C159.515 347.261 173.213 360.959 190.11 360.959Z" fill="#FF6584"/>
<path d="M270.111 321.597L191.525 346.285L192.06 347.986L270.645 323.298L270.111 321.597Z" fill="#3F3D56"/>
<path d="M270.611 325.728C272.58 325.728 274.176 324.131 274.176 322.162C274.176 320.193 272.58 318.597 270.611 318.597C268.642 318.597 267.045 320.193 267.045 322.162C267.045 324.131 268.642 325.728 270.611 325.728Z" fill="#3F3D56"/>
<path d="M780.78 482.601C786.003 486.282 791.022 490.035 796.762 492.869C796.655 493.306 796.54 493.752 796.433 494.189C795.728 493.859 795.042 493.511 794.356 493.155C788.535 490.106 783.525 485.961 778.061 482.36C775.352 480.488 772.394 479.006 769.272 477.957C766.018 476.979 762.618 476.581 759.226 476.78C745.08 477.475 732.957 485.917 719.81 490.169C713.374 492.254 706.528 493.369 699.816 492.058C693.104 490.748 687.14 487.182 681.213 483.956C675.365 480.764 668.992 477.556 662.164 477.556C656.602 477.564 650.754 479.793 647.777 484.713C647.684 484.86 647.538 484.965 647.37 485.006C647.201 485.047 647.023 485.021 646.873 484.933C646.723 484.845 646.614 484.702 646.568 484.534C646.522 484.367 646.543 484.188 646.627 484.036C647.293 482.914 648.112 481.891 649.061 480.996C652.947 477.315 658.661 475.862 663.911 476.29C670.703 476.842 676.898 480.051 682.773 483.278C689.003 486.701 695.386 490.382 702.588 491.131C709.701 491.88 716.743 490.017 723.339 487.512C736.113 482.654 748.717 474.56 762.926 475.461C769.629 475.889 775.369 478.795 780.78 482.601Z" fill="#3F3D56"/>
<path d="M221.67 224.804V226.614C221.071 226.495 220.462 226.436 219.851 226.435H210.527V246.456C210.526 249.42 209.348 252.262 207.252 254.358C205.156 256.454 202.314 257.632 199.35 257.634H185.569V260.718C185.569 261.954 185.814 263.178 186.291 264.319H184.383C183.985 263.161 183.783 261.943 183.786 260.718V257.634H176.209V255.851H183.786V235.831C183.788 232.867 184.966 230.024 187.062 227.929C189.158 225.833 192 224.654 194.964 224.653H208.745V221.533H210.527V224.653H219.851C220.461 224.653 221.069 224.704 221.67 224.804V224.804Z" fill="#6C63FF"/>
<path d="M199.35 210.391H174.462C171.498 210.392 168.656 211.571 166.56 213.666C164.464 215.762 163.286 218.605 163.284 221.569V246.456C163.286 249.42 164.464 252.262 166.56 254.358C168.656 256.454 171.498 257.632 174.462 257.634H199.35C202.314 257.632 205.156 256.454 207.252 254.358C209.348 252.262 210.526 249.42 210.527 246.456V221.533C210.517 218.575 209.335 215.742 207.24 213.653C205.145 211.565 202.308 210.392 199.35 210.391V210.391ZM208.745 246.456C208.741 248.947 207.75 251.334 205.989 253.096C204.228 254.857 201.84 255.848 199.35 255.851H174.462C171.971 255.848 169.584 254.857 167.822 253.096C166.061 251.334 165.07 248.947 165.067 246.456V221.569C165.07 219.078 166.061 216.69 167.822 214.929C169.584 213.168 171.971 212.177 174.462 212.173H199.35C201.834 212.176 204.217 213.162 205.977 214.916C207.737 216.669 208.732 219.048 208.745 221.533V246.456Z" fill="#3F3D56"/>
<path d="M183.786 255.851V257.634H185.569V255.851H183.786ZM183.786 255.851V257.634H185.569V255.851H183.786ZM221.67 224.804C221.069 224.704 220.461 224.653 219.851 224.653H194.964C192 224.654 189.158 225.833 187.062 227.929C184.966 230.024 183.788 232.867 183.786 235.831V260.718C183.783 261.943 183.985 263.161 184.383 264.319C185.136 266.528 186.56 268.447 188.458 269.805C190.355 271.164 192.63 271.895 194.964 271.896H219.851C222.815 271.894 225.658 270.716 227.753 268.62C229.849 266.524 231.028 263.682 231.029 260.718V235.831C231.029 233.182 230.087 230.619 228.373 228.6C226.659 226.58 224.283 225.235 221.67 224.804V224.804ZM229.247 260.718C229.243 263.209 228.252 265.597 226.491 267.358C224.73 269.119 222.342 270.11 219.851 270.113H194.964C192.473 270.11 190.086 269.119 188.324 267.358C186.563 265.596 185.572 263.209 185.569 260.718V235.831C185.572 233.34 186.563 230.952 188.324 229.191C190.085 227.43 192.473 226.439 194.964 226.436H219.851C222.343 226.436 224.732 227.427 226.494 229.188C228.255 230.95 229.246 233.339 229.247 235.831V260.718ZM183.786 255.851V257.634H185.569V255.851H183.786Z" fill="#3F3D56"/>
<path d="M166.181 488.225H60.4634C59.7275 488.226 59.0217 488.518 58.5005 489.037C57.9793 489.557 57.6851 490.262 57.6823 490.998V497.264C61.1702 510.623 65.3928 523.779 70.331 536.672H166.181C166.545 536.672 166.906 536.601 167.243 536.462C167.579 536.323 167.885 536.118 168.142 535.861C168.4 535.603 168.604 535.298 168.743 534.961C168.882 534.625 168.954 534.264 168.953 533.9V490.998C168.953 490.263 168.66 489.558 168.141 489.038C167.621 488.518 166.916 488.226 166.181 488.225V488.225Z" fill="#6C63FF"/>
<path d="M156.109 550.586H75.9734C76.9272 552.824 77.8988 555.043 78.9061 557.254H156.109C160.459 557.316 160.414 550.524 156.109 550.586Z" fill="#E4E4E4"/>
<path d="M156.109 565.865H82.9263C83.9959 568.102 85.0952 570.325 86.2243 572.532H156.109C160.459 572.595 160.414 565.811 156.109 565.865Z" fill="#E4E4E4"/>
<path d="M156.109 581.152H90.7258C91.9203 583.389 93.1504 585.609 94.3983 587.819H156.109C160.459 587.882 160.414 581.09 156.109 581.152Z" fill="#E4E4E4"/>
<path d="M704.176 170.256H703.668C705.249 170.257 706.808 170.626 708.223 171.333H705.911C703.42 171.336 701.032 172.327 699.271 174.088C697.51 175.849 696.519 178.237 696.516 180.728V205.616C696.519 208.107 697.51 210.495 699.271 212.256C701.032 214.017 703.42 215.008 705.911 215.011H707.385C706.2 215.475 704.94 215.715 703.668 215.716H704.176C706.903 215.713 709.518 214.629 711.446 212.7C713.374 210.772 714.459 208.157 714.462 205.43V180.542C714.459 177.815 713.374 175.201 711.446 173.272C709.518 171.344 706.903 170.259 704.176 170.256V170.256Z" fill="#3F3D56"/>
<path opacity="0.21" d="M704.176 170.256H703.668C705.249 170.257 706.808 170.626 708.223 171.333H705.911C703.42 171.336 701.032 172.327 699.271 174.088C697.51 175.849 696.519 178.237 696.516 180.728V205.616C696.519 208.107 697.51 210.495 699.271 212.256C701.032 214.017 703.42 215.008 705.911 215.011H707.385C706.2 215.475 704.94 215.715 703.668 215.716H704.176C706.903 215.713 709.518 214.629 711.446 212.7C713.374 210.772 714.459 208.157 714.462 205.43V180.542C714.459 177.815 713.374 175.201 711.446 173.272C709.518 171.344 706.903 170.259 704.176 170.256V170.256Z" fill="black"/>
<path d="M638.214 170.256H637.706C639.287 170.257 640.846 170.626 642.26 171.333H639.949C637.458 171.336 635.07 172.327 633.309 174.088C631.547 175.849 630.557 178.237 630.554 180.728V205.616C630.557 208.107 631.547 210.495 633.309 212.256C635.07 214.017 637.458 215.008 639.949 215.011H641.422C640.238 215.475 638.978 215.715 637.706 215.716H638.214C640.941 215.713 643.555 214.629 645.484 212.7C647.412 210.772 648.497 208.157 648.5 205.43V180.542C648.497 177.815 647.412 175.201 645.484 173.272C643.555 171.344 640.941 170.259 638.214 170.256V170.256Z" fill="#6C63FF"/>
<path opacity="0.21" d="M638.214 170.256H637.706C639.287 170.257 640.846 170.626 642.26 171.333H639.949C637.458 171.336 635.07 172.327 633.309 174.088C631.547 175.849 630.557 178.237 630.554 180.728V205.616C630.557 208.107 631.547 210.495 633.309 212.256C635.07 214.017 637.458 215.008 639.949 215.011H641.422C640.238 215.475 638.978 215.715 637.706 215.716H638.214C640.941 215.713 643.555 214.629 645.484 212.7C647.412 210.772 648.497 208.157 648.5 205.43V180.542C648.497 177.815 647.412 175.201 645.484 173.272C643.555 171.344 640.941 170.259 638.214 170.256V170.256Z" fill="black"/>
<path d="M640.048 215.088C637.557 215.085 635.17 214.095 633.408 212.333C631.647 210.572 630.656 208.184 630.654 205.693V180.805C630.656 178.315 631.647 175.927 633.408 174.165C635.17 172.404 637.557 171.413 640.048 171.411H642.36C640.946 170.704 639.386 170.335 637.805 170.333H612.917C610.19 170.337 607.576 171.421 605.647 173.35C603.719 175.278 602.634 177.892 602.631 180.62V205.508C602.634 208.235 603.719 210.849 605.647 212.778C607.576 214.706 610.19 215.791 612.917 215.794H637.805C639.077 215.792 640.338 215.553 641.522 215.088L640.048 215.088Z" fill="#6C63FF"/>
<path d="M706.01 215.088C703.52 215.085 701.132 214.095 699.37 212.333C697.609 210.572 696.618 208.184 696.616 205.693V180.805C696.618 178.315 697.609 175.927 699.37 174.165C701.132 172.404 703.52 171.413 706.01 171.411H708.322C706.908 170.704 705.349 170.335 703.768 170.333H678.88C676.152 170.337 673.538 171.421 671.61 173.35C669.681 175.278 668.597 177.892 668.593 180.62V205.508C668.597 208.235 669.681 210.849 671.61 212.778C673.538 214.706 676.152 215.791 678.88 215.794H703.768C705.04 215.792 706.3 215.553 707.484 215.088L706.01 215.088Z" fill="#3F3D56"/>
<path d="M735.4 176.527C744.533 189.093 752.889 202.206 760.421 215.792H744.839C742.113 215.788 739.498 214.703 737.57 212.775C735.642 210.847 734.557 208.233 734.553 205.506V180.619C734.552 179.211 734.84 177.819 735.4 176.527V176.527Z" fill="#FF6584"/>
<path d="M704.157 228.851L695.439 215.792L689.066 206.246C688.694 205.688 688.172 205.247 687.559 204.974C686.947 204.701 686.27 204.608 685.607 204.704C684.944 204.8 684.321 205.082 683.812 205.517C683.302 205.953 682.926 206.524 682.728 207.164L680.045 215.792L674.643 233.13C674.43 233.82 674.432 234.56 674.65 235.249C674.868 235.939 675.291 236.545 675.862 236.988C676.434 237.43 677.127 237.688 677.849 237.727C678.57 237.765 679.287 237.583 679.902 237.203L681.819 236.018C682.205 235.78 682.645 235.645 683.097 235.625C683.55 235.604 684 235.7 684.406 235.903C684.811 236.106 685.158 236.408 685.413 236.783C685.669 237.157 685.824 237.59 685.866 238.041L687.622 257.206C687.704 258.086 688.111 258.904 688.764 259.501C689.416 260.097 690.267 260.43 691.152 260.433C691.259 260.433 691.366 260.424 691.481 260.415L694.173 260.174C694.638 260.132 695.089 259.999 695.502 259.782C695.915 259.565 696.281 259.269 696.579 258.91C696.877 258.552 697.101 258.138 697.239 257.693C697.377 257.247 697.426 256.779 697.382 256.315L695.573 236.526C695.53 236.061 695.61 235.593 695.806 235.169C696.001 234.745 696.305 234.38 696.686 234.111C697.068 233.842 697.513 233.678 697.978 233.635C698.443 233.593 698.911 233.674 699.334 233.87L699.727 234.048C700.429 234.371 701.218 234.456 701.973 234.29C702.728 234.124 703.408 233.715 703.91 233.127C704.411 232.539 704.707 231.803 704.751 231.031C704.796 230.259 704.587 229.493 704.157 228.851V228.851Z" fill="#CCCCCC"/>
</svg>
