<svg width="1150" height="1352" viewBox="0 0 1150 1352" fill="none" xmlns="http://www.w3.org/2000/svg">
<rect width="1150" height="1352" fill="#E5E5E5"/>
<g clip-path="url(#clip0)">
<path d="M313.08 899.61L470.85 1069.73C479.726 1076.67 486.906 1085.53 491.844 1095.66C496.782 1105.78 499.349 1116.9 499.35 1128.16V1307.1C499.35 1317.99 495.025 1328.43 487.327 1336.13C479.628 1343.83 469.187 1348.15 458.3 1348.15H253.08" stroke="#D8BAA3" stroke-width="6" stroke-miterlimit="10" stroke-linecap="round"/>
<path d="M498.93 872.61C498.93 879.771 496.085 886.638 491.022 891.702C485.958 896.765 479.091 899.61 471.93 899.61H82.08C61.1075 899.607 40.9947 891.275 26.1649 876.445C11.3351 861.615 3.00265 841.503 3 820.53V511.12C2.99868 504.031 4.3949 497.01 7.1088 490.461C9.8227 483.912 13.8011 477.962 18.8163 472.951C23.8316 467.94 29.7854 463.968 36.3373 461.26C42.8892 458.552 49.9106 457.162 57 457.17H257.17C262.007 457.169 266.797 458.12 271.266 459.971C275.735 461.821 279.795 464.534 283.216 467.954C286.636 471.375 289.349 475.435 291.199 479.904C293.05 484.373 294.001 489.163 294 494V766.54C294 787.511 302.331 807.622 317.159 822.451C331.988 837.279 352.099 845.61 373.07 845.61H471.93C479.091 845.61 485.958 848.455 491.022 853.518C496.085 858.582 498.93 865.449 498.93 872.61V872.61Z" fill="white" stroke="#D8BAA3" stroke-width="6" stroke-miterlimit="10" stroke-linecap="round"/>
<path d="M497.86 880.15C496.227 885.764 492.817 890.696 488.141 894.205C483.465 897.714 477.776 899.611 471.93 899.61H82.08C61.1075 899.607 40.9947 891.275 26.1649 876.445C11.3351 861.615 3.00265 841.503 3 820.53V511.12C3.00229 501.157 5.76108 491.388 10.9711 482.895C16.1811 474.403 23.6392 467.517 32.52 463C26.9414 471.687 23.9835 481.796 24 492.12V813.64C24 831.41 31.0589 848.451 43.6238 861.016C56.1888 873.581 73.2305 880.64 91 880.64H493C494.632 880.63 496.259 880.466 497.86 880.15Z" fill="#F0E1D4" stroke="#D8BAA3" stroke-width="6" stroke-miterlimit="10" stroke-linecap="round"/>
<path d="M295 660.89H369C403.408 660.903 436.403 674.581 460.729 698.916C485.055 723.252 498.72 756.251 498.72 790.66V880.66" stroke="#D8BAA3" stroke-width="6" stroke-miterlimit="10" stroke-linecap="round"/>
<path d="M142.08 899.61L299.85 1069.73C308.726 1076.67 315.906 1085.53 320.844 1095.66C325.782 1105.78 328.349 1116.9 328.35 1128.16V1307.1C328.35 1317.99 324.025 1328.43 316.327 1336.13C308.628 1343.83 298.187 1348.15 287.3 1348.15H82.08" stroke="#D8BAA3" stroke-width="6" stroke-miterlimit="10" stroke-linecap="round"/>
<path d="M316.59 251.56C316.59 251.56 390.47 240.56 434.86 337.62C473.74 422.62 502.73 501.89 502.73 501.89C502.73 501.89 562.65 535.4 663.43 571.27V619.37C663.43 619.37 509.72 628.3 458.43 619.37C420.72 612.81 316.66 473.23 309.43 378.55C302.2 283.87 316.59 251.56 316.59 251.56Z" fill="#374486"/>
<path d="M643.21 618.9C637.52 617.75 641.67 600.06 645.01 589.15C646.86 583.15 651.28 580.07 657.17 577.48C668.89 572.3 689.17 569.28 700.6 571.78C717.38 575.45 728.16 582.92 738.6 595.13C741.6 598.62 756.35 615.41 756.35 619.89L643.21 618.9Z" fill="#FAB6AD"/>
<path d="M245.84 212.51C182.14 219.07 59.17 296.41 79.52 580.4C92.52 762 211.75 853 226.16 846.82C240.57 840.64 485.08 720.13 429.07 655.3C375.48 593.3 392.92 545.86 401.35 461.9C409.78 377.94 422.45 286.57 354.35 254.95C244 203.74 262.87 210.75 245.84 212.51Z" fill="#3F4D90"/>
<path d="M756.3 1346.83H582.12C581.94 1344.05 581.89 1341.41 581.93 1338.83H756.5C756.696 1341.5 756.629 1344.18 756.3 1346.83V1346.83Z" fill="#383C4D"/>
<path d="M599.87 1265.55C600.49 1285.37 582.13 1297.92 582.13 1338.87H756.3C756.3 1338.87 758.83 1304.52 724 1296.6C689.17 1288.68 657.5 1278.1 654.33 1265.6L599.87 1265.55Z" fill="#FFB000"/>
<path d="M412.56 643.28C412.56 643.28 678.4 625.94 743 705.19C807.6 784.44 682.2 1096.29 669.53 1268.02C669.53 1268.02 605.92 1274.62 580.09 1268.02C554.26 1261.42 531.78 928.65 596.85 848.08C596.85 848.08 359.43 907.43 262.98 832.57C166.53 757.71 372.42 644.68 412.56 643.28Z" fill="#383C4D"/>
<path d="M1149.9 1071.84L1011.74 1182.43C1009.74 1179.94 1008.02 1177.5 1006.43 1175.13L1144.05 1065C1146.25 1067.05 1148.22 1069.35 1149.9 1071.84Z" fill="#41465A"/>
<path d="M977.29 1106C989.35 1121.32 982.11 1142.94 1006.01 1175.42L1144.18 1064.84C1144.18 1064.84 1126.18 1035.98 1093.88 1051.84C1061.58 1067.7 1030.33 1079.4 1020.49 1071.45L977.29 1106Z" fill="#FFB000"/>
<path d="M218.76 840.53C222.76 862.9 438.99 927.11 679.66 768.6C679.66 768.6 717 977.68 960.21 1116.38C960.21 1116.38 1013.76 1092.58 1028.32 1060.54C1028.32 1060.54 856.75 841.25 795.66 663.54C770 589 447.26 628 400.08 643.28C352.9 658.56 201 740.85 218.76 840.53Z" fill="#41465A"/>
<path d="M227.31 285.17C283 303.67 361.38 468.46 361.38 468.46C361.38 468.46 449.1 476.87 581.86 532.46C581.86 532.46 584.92 561.35 567.43 585.02C567.43 585.02 421.43 603.94 345.49 596.17C319.81 593.52 222.5 520.73 169 420C121.16 329.9 159.28 262.58 227.31 285.17Z" fill="#49549A"/>
<path d="M580.83 533.38C580.83 533.38 617.83 513.84 635.16 517.75C652.49 521.66 673.37 537.29 675.54 541.63C677.71 545.97 692.91 567.25 692.91 572.02C692.91 576.79 643.79 575.02 636.91 575.02C630.03 575.02 584.58 575.75 575.81 573.93C567.04 572.11 580.83 533.38 580.83 533.38Z" fill="#92664D"/>
<path d="M636.87 575.06C643.79 575.06 692.87 576.8 692.87 572.06C692.87 567.32 677.67 546.06 675.5 541.67C673.33 537.28 652.5 521.67 635.12 517.79C635.12 517.79 656.56 547.56 636.83 575.1" fill="#4B3427"/>
<path d="M300.37 122.5C301.48 131.14 282.21 174.6 247.83 208.39C217.66 238.02 347.43 260.95 350.83 260.2C354.23 259.45 369.38 213.82 372.49 203.13C375.6 192.44 300.37 122.5 300.37 122.5Z" fill="#92664D"/>
<path d="M372.48 203.13C371.14 207.74 365.78 222.8 359.85 238.5C345.53 231.57 328.76 217.99 315.64 192.14C301.43 164.14 303.2 135.53 301.5 128.14C301.385 126.774 301.605 125.402 302.14 124.14C313.46 134.79 375.3 193.41 372.48 203.13Z" fill="#4B3427"/>
<path d="M412.35 77.82C417.76 99.37 422.52 135.5 415.16 153.04C407.8 170.58 394.81 202.81 389.72 204.5C384.63 206.19 328.64 198.85 315.64 174.5C302.64 150.15 302.06 129.82 300.37 122.5C298.68 115.18 329.21 55.76 368.23 56.89C407.25 58.02 410.78 71.57 412.35 77.82Z" fill="#92664D"/>
<path d="M436 67.13C425.63 71.38 433.49 83.41 414 85.21C394.51 87.01 390 63.12 390 63.12C390 63.12 387.78 72.67 378 75.93C378 75.93 383.21 65.81 375.74 61.35C368.27 56.89 363.68 62.86 363.68 62.86C363.68 62.86 357.17 59.6 353.68 67.38C350.19 75.16 356.48 79.82 364.68 80.71C364.68 80.71 365.43 92.27 347.09 94.03C328.75 95.79 324.97 84.48 324.97 84.48C324.97 84.48 321.97 81.71 320.69 89.76C319.41 97.81 325.69 110.87 312.9 121.18C307.79 125.29 304.9 126.92 303.37 127.39C309.82 132.97 306.7 149.91 292.08 156.82C272.23 166.21 257.67 159.27 255.86 145.55C254.23 133.16 262.13 138.02 260.11 128.47C260.11 128.47 247.18 137.93 238.81 124.15C231.97 112.89 243.93 105.84 243.93 105.84C243.93 105.84 235.41 94.16 242.49 86C250.49 76.69 263 82.72 261.17 76.94C259.34 71.16 254.56 57.58 262.34 50C270.12 42.42 282.46 45.47 284.21 41.45C285.96 37.43 283.47 31.45 275.43 34.94C275.747 32.3459 276.627 29.8524 278.009 27.6344C279.391 25.4164 281.241 23.5274 283.43 22.1C290.56 17.29 301.13 18.41 308.43 20.55C309.67 14 312.76 6 320.66 2.28C333.75 -3.85 343.09 3.62 348.2 10C348.953 7.76826 350.336 5.80198 352.181 4.33817C354.026 2.87436 356.255 1.97552 358.6 1.75C374.18 -0.509997 387 3.54 390 16.1C393.17 29.33 416.31 -1.17 427.2 24.9C429.43 30.23 423.61 34.44 430.2 38.73C433.93 41.16 438.72 33.23 434.99 30.45C439.639 32.3746 443.514 35.7951 446 40.17C448 43.69 452.71 60.3 436 67.13Z" fill="#0F1014"/>
<path d="M24 660.89H114C148.408 660.903 181.403 674.581 205.729 698.916C230.055 723.252 243.72 756.251 243.72 790.66V880.66" stroke="#D8BAA3" stroke-width="6" stroke-miterlimit="10" stroke-linecap="round"/>
<path d="M1025.65 605.06H509.92C506.074 605.06 502.386 606.588 499.667 609.307C496.948 612.026 495.42 615.714 495.42 619.56V619.56C495.42 623.406 496.948 627.094 499.667 629.813C502.386 632.532 506.074 634.06 509.92 634.06H1025.65V605.06Z" fill="white"/>
<path d="M1025.65 605.06H509.92C506.074 605.06 502.386 606.588 499.667 609.307C496.948 612.026 495.42 615.714 495.42 619.56V619.56C495.42 623.406 496.948 627.094 499.667 629.813C502.386 632.532 506.074 634.06 509.92 634.06H1025.65" stroke="#D8BAA3" stroke-width="6" stroke-miterlimit="10"/>
<path d="M802.36 1347.15L885.62 649.6C888.26 634.73 909.42 634.26 912.71 649L1016.43 1343.24" stroke="#D8BAA3" stroke-width="6" stroke-miterlimit="10" stroke-linecap="round"/>
<path d="M970.37 578.22H573.65C568.249 578.22 563.87 582.599 563.87 588V594C563.87 599.401 568.249 603.78 573.65 603.78H970.37C975.771 603.78 980.15 599.401 980.15 594V588C980.15 582.599 975.771 578.22 970.37 578.22Z" fill="white" stroke="#D8BAA3" stroke-width="6" stroke-miterlimit="10"/>
<path d="M954.25 577.78H663.47C655.95 577.78 650.9 570.55 653.93 564.11L736.07 389.39C740.73 379.49 751.2 373.1 762.76 373.1H1053.55C1061.07 373.1 1066.11 380.33 1063.08 386.77L980.94 561.48C976.29 571.38 965.82 577.78 954.25 577.78Z" fill="white" stroke="#D8BAA3" stroke-width="6" stroke-miterlimit="10"/>
</g>
<defs>
<clipPath id="clip0">
<rect width="1149.9" height="1351.15" fill="white"/>
</clipPath>
</defs>
</svg>
