<svg width="250" height="135" viewBox="0 0 250 135" fill="none" xmlns="http://www.w3.org/2000/svg">
<rect width="250" height="135" rx="20" fill="white"/>
<path d="M49.9062 32.9688V80.6875C49.9062 93.5625 42.3281 100 27.1719 100V92.9688C36.5469 92.9688 41.2344 88.875 41.2344 80.6875V32.9688H49.9062ZM73.1094 66.2969C73.1094 84.3906 81.2812 93.4375 97.625 93.4375C113.625 93.4375 121.625 84.3906 121.625 66.2969C121.625 48.4531 113.625 39.5312 97.625 39.5312C81.2812 39.5312 73.1094 48.4531 73.1094 66.2969ZM63.9688 66.5781C63.9688 43.8594 75.1875 32.5 97.625 32.5C119.719 32.5 130.766 43.8594 130.766 66.5781C130.766 89.1719 119.719 100.469 97.625 100.469C75.1875 100.469 63.9688 89.1719 63.9688 66.5781ZM144.406 100V32.9688H173C185.75 32.9688 192.125 38.1719 192.125 48.5781C192.125 56.2031 187.969 61.6562 179.656 64.9375C188.531 66.5938 192.969 71.6719 192.969 80.1719C192.969 93.3906 185.984 100 172.016 100H144.406ZM171.5 92.9688C179.5 92.9688 183.5 88.9062 183.5 80.7812C183.5 72.875 178.141 68.9219 167.422 68.9219H163.672V63.25C176.484 61.5312 182.891 56.9062 182.891 49.375C182.891 43.125 179.328 40 172.203 40H153.078V92.9688H171.5Z" fill="#040404"/>
<path d="M215.422 50.7812V100H206.75V50.7812H215.422ZM215.422 32.9688V41.1719H206.75V32.9688H215.422Z" fill="#008AEE"/>
</svg>
