<svg width="297" height="149" viewBox="0 0 297 149" fill="none" xmlns="http://www.w3.org/2000/svg">
<rect width="297" height="149" rx="10" fill="#FCFCFF"/>
<path d="M19 111.405C105.012 92.2916 187.807 63.6286 276.659 60.3378" stroke="#EECCAA" stroke-width="20" stroke-linecap="round"/>
<path d="M35.5407 104H34.2927L42.6447 36.8H45.8127L65.9727 98.912L86.0367 36.8H89.2047L97.5567 104H89.5887L82.9647 50.24L65.5887 104H59.5407L41.9727 50.912L35.5407 104ZM108.303 104H107.151L135.855 36.8L136.911 36.32L161.103 104H152.943L145.455 82.88H117.423L108.303 104ZM132.879 47.168L117.807 81.92H145.167L132.879 47.168ZM169.846 37.76V36.8H209.014V37.76L175.126 103.04H204.022C205.878 103.04 207.574 102.72 209.11 102.08C210.646 101.44 211.67 100.512 212.182 99.296L212.95 99.68C212.822 100 212.598 100.416 212.278 100.928C212.022 101.376 211.158 102.016 209.686 102.848C208.214 103.616 206.422 104 204.31 104H167.35V103.04L201.046 37.76H169.846ZM257.391 36.8V37.76H227.151V66.56H255.183V67.52H227.151V103.04H259.503V104H219.183V36.8H257.391ZM243.951 18.464L250.863 18.272L240.783 32H239.535L243.951 18.464Z" fill="#0C1713"/>
<path d="M40.9027 115.6C39.7194 115.6 38.7277 116.167 37.9277 117.3C37.1444 118.433 36.7527 120 36.7527 122C36.7527 124 37.1111 125.483 37.8277 126.45C38.5611 127.417 39.5194 127.9 40.7027 127.9C42.1861 127.9 43.5027 127.65 44.6527 127.15L44.7277 127.325C43.5444 127.842 42.1611 128.1 40.5777 128.1C38.9944 128.1 37.6777 127.6 36.6277 126.6C35.5777 125.6 35.0527 124.058 35.0527 121.975C35.0527 119.892 35.6027 118.275 36.7027 117.125C37.8027 115.975 39.2027 115.4 40.9027 115.4C41.8527 115.4 42.7277 115.617 43.5277 116.05C44.3444 116.483 44.9444 117.142 45.3277 118.025H43.7277C43.4777 117.208 43.0944 116.6 42.5777 116.2C42.0777 115.8 41.5194 115.6 40.9027 115.6ZM52.5256 128.1C50.7756 128.1 49.3506 127.6 48.2506 126.6C47.1506 125.6 46.6006 124.058 46.6006 121.975C46.6006 119.892 47.1673 118.275 48.3006 117.125C49.4506 115.975 50.9006 115.4 52.6506 115.4C54.4173 115.4 55.8506 115.9 56.9506 116.9C58.0506 117.9 58.6006 119.442 58.6006 121.525C58.6006 123.608 58.0256 125.225 56.8756 126.375C55.7423 127.525 54.2923 128.1 52.5256 128.1ZM52.7006 115.6C51.4339 115.6 50.3839 116.167 49.5506 117.3C48.7173 118.417 48.3006 119.983 48.3006 122C48.3006 124 48.6839 125.483 49.4506 126.45C50.2173 127.417 51.2339 127.9 52.5006 127.9C53.7673 127.9 54.8173 127.342 55.6506 126.225C56.4839 125.092 56.9006 123.525 56.9006 121.525C56.9006 119.508 56.5173 118.017 55.7506 117.05C54.9839 116.083 53.9673 115.6 52.7006 115.6ZM70.4766 128C69.7932 128 69.2682 127.85 68.9016 127.55C68.5516 127.25 68.3682 126.95 68.3516 126.65L68.3266 126.225V118.375C68.3266 117.058 67.9849 116.217 67.3016 115.85C66.9516 115.683 66.5182 115.6 66.0016 115.6C64.9349 115.6 63.9766 116.025 63.1266 116.875C62.2766 117.708 61.8516 118.458 61.8516 119.125V128H60.1016V115.5H61.8516V118.35C62.1349 117.633 62.6599 116.967 63.4266 116.35C64.1932 115.717 65.0349 115.4 65.9516 115.4C66.8682 115.4 67.6099 115.492 68.1766 115.675C68.7599 115.842 69.1849 116.083 69.4516 116.4C69.8682 116.917 70.0766 117.583 70.0766 118.4V126.225C70.0766 126.708 70.1682 127.083 70.3516 127.35C70.5516 127.6 70.7516 127.733 70.9516 127.75L71.2266 127.8H72.0016V128H70.4766ZM75.4107 114.325V115.5H77.3857V115.7H75.4107V128H73.6607V115.7H73.1357V115.5H73.6607V114.325C73.6607 112.508 74.0524 111.217 74.8357 110.45C75.6191 109.667 76.8857 109.267 78.6357 109.25V109.45C77.4857 109.467 76.6607 109.858 76.1607 110.625C75.6607 111.375 75.4107 112.608 75.4107 114.325ZM80.8445 121.9C80.8445 123.967 81.2029 125.483 81.9195 126.45C82.6529 127.417 83.6112 127.9 84.7945 127.9C86.4612 127.9 87.9445 127.65 89.2445 127.15L89.3195 127.325C87.9862 127.842 86.4779 128.1 84.7945 128.1C83.1279 128.1 81.7695 127.6 80.7195 126.6C79.6695 125.6 79.1445 124.058 79.1445 121.975C79.1445 119.892 79.6945 118.275 80.7945 117.125C81.8945 115.975 83.2945 115.4 84.9945 115.4C86.3612 115.4 87.5112 115.808 88.4445 116.625C89.3779 117.442 89.8445 118.65 89.8445 120.25C89.8445 120.333 89.8445 120.417 89.8445 120.5H80.9195C80.8695 120.95 80.8445 121.417 80.8445 121.9ZM88.1445 120.3C88.1279 118.7 87.8195 117.517 87.2195 116.75C86.6195 115.983 85.8445 115.6 84.8945 115.6C83.9445 115.6 83.0945 116.017 82.3445 116.85C81.6112 117.683 81.1445 118.833 80.9445 120.3H88.1445ZM93.4133 128C92.7299 128 92.2049 127.85 91.8383 127.55C91.4883 127.25 91.3049 126.95 91.2883 126.65L91.2633 126.225V115.5H93.0133V126.225C93.0133 126.708 93.1049 127.083 93.2883 127.35C93.4883 127.6 93.6799 127.733 93.8633 127.75L94.1633 127.8H94.9383V128H93.4133ZM91.4133 112.7C91.2133 112.5 91.1133 112.25 91.1133 111.95C91.1133 111.65 91.2133 111.4 91.4133 111.2C91.6133 110.983 91.8633 110.875 92.1633 110.875C92.4633 110.875 92.7133 110.983 92.9133 111.2C93.1299 111.4 93.2383 111.65 93.2383 111.95C93.2383 112.25 93.1299 112.5 92.9133 112.7C92.7133 112.9 92.4633 113 92.1633 113C91.8633 113 91.6133 112.9 91.4133 112.7ZM96.8174 115.7V115.5H97.3424V113H99.0924V115.5H102.917V115.7H99.0924V124.8C99.0924 125.883 99.209 126.667 99.4424 127.15C99.6924 127.633 100.201 127.875 100.967 127.875C101.751 127.875 102.542 127.717 103.342 127.4L103.417 127.6C102.584 127.917 101.626 128.075 100.542 128.075C99.4757 128.075 98.6757 127.858 98.1424 127.425C97.609 126.975 97.3424 126.092 97.3424 124.775V115.7H96.8174ZM109.972 128.1C108.222 128.1 106.797 127.6 105.697 126.6C104.597 125.6 104.047 124.058 104.047 121.975C104.047 119.892 104.614 118.275 105.747 117.125C106.897 115.975 108.347 115.4 110.097 115.4C111.864 115.4 113.297 115.9 114.397 116.9C115.497 117.9 116.047 119.442 116.047 121.525C116.047 123.608 115.472 125.225 114.322 126.375C113.189 127.525 111.739 128.1 109.972 128.1ZM110.147 115.6C108.88 115.6 107.83 116.167 106.997 117.3C106.164 118.417 105.747 119.983 105.747 122C105.747 124 106.13 125.483 106.897 126.45C107.664 127.417 108.68 127.9 109.947 127.9C111.214 127.9 112.264 127.342 113.097 126.225C113.93 125.092 114.347 123.525 114.347 121.525C114.347 119.508 113.964 118.017 113.197 117.05C112.43 116.083 111.414 115.6 110.147 115.6ZM124.848 116.375C124.581 116.158 124.148 115.975 123.548 115.825C122.965 115.675 122.523 115.6 122.223 115.6C121.923 115.6 121.748 115.6 121.698 115.6C120.798 115.617 120.148 115.85 119.748 116.3C119.348 116.733 119.148 117.225 119.148 117.775C119.148 118.325 119.323 118.792 119.673 119.175C120.023 119.542 120.456 119.833 120.973 120.05C121.506 120.25 122.073 120.483 122.673 120.75C123.29 121.017 123.856 121.292 124.373 121.575C124.906 121.842 125.348 122.242 125.698 122.775C126.048 123.292 126.223 123.942 126.223 124.725C126.223 125.508 125.948 126.175 125.398 126.725C124.848 127.275 124.231 127.642 123.548 127.825C122.881 128.008 122.156 128.1 121.373 128.1C119.673 128.1 118.398 127.725 117.548 126.975L117.698 126.825C118.031 127.142 118.523 127.4 119.173 127.6C119.84 127.8 120.481 127.9 121.098 127.9C122.081 127.9 122.89 127.633 123.523 127.1C124.173 126.55 124.498 125.875 124.498 125.075C124.498 124.258 124.256 123.608 123.773 123.125C123.29 122.625 122.698 122.242 121.998 121.975C121.315 121.692 120.623 121.417 119.923 121.15C119.223 120.867 118.631 120.483 118.148 120C117.665 119.5 117.423 118.925 117.423 118.275C117.423 117.625 117.573 117.1 117.873 116.7C118.173 116.283 118.573 115.992 119.073 115.825C119.923 115.542 120.773 115.4 121.623 115.4C123.056 115.4 124.173 115.667 124.973 116.2L124.848 116.375ZM149.94 118.2V117.95H156.115V118.2H154.74C153.84 120.65 152.349 122.85 150.265 124.8C149.249 125.75 148.057 126.525 146.69 127.125C145.324 127.708 143.915 128 142.465 128C141.082 128 139.815 127.733 138.665 127.2C137.999 126.9 137.407 126.517 136.89 126.05C136.39 125.567 135.974 124.925 135.64 124.125C135.307 123.308 135.14 122.375 135.14 121.325C135.14 119.275 135.765 117.55 137.015 116.15C138.282 114.733 139.715 114.025 141.315 114.025C144.215 114.025 145.715 115.317 145.815 117.9L149.965 114.625L150.14 114.775L137.74 124.525C138.157 125.525 138.749 126.317 139.515 126.9C140.299 127.467 141.274 127.75 142.44 127.75C143.624 127.75 144.799 127.458 145.965 126.875C147.149 126.275 148.174 125.5 149.04 124.55C150.79 122.617 152.024 120.5 152.74 118.2H149.94ZM143.84 119.475C143.824 117.575 143.632 116.233 143.265 115.45C142.915 114.667 142.315 114.275 141.465 114.275C140.632 114.275 139.924 114.5 139.34 114.95C138.774 115.383 138.332 115.958 138.015 116.675C137.432 118.058 137.14 119.567 137.14 121.2L137.19 122.3C137.274 123.05 137.424 123.733 137.64 124.35L143.84 119.475ZM172.846 116.375C172.579 116.158 172.146 115.975 171.546 115.825C170.963 115.675 170.521 115.6 170.221 115.6C169.921 115.6 169.746 115.6 169.696 115.6C168.796 115.617 168.146 115.85 167.746 116.3C167.346 116.733 167.146 117.225 167.146 117.775C167.146 118.325 167.321 118.792 167.671 119.175C168.021 119.542 168.454 119.833 168.971 120.05C169.504 120.25 170.071 120.483 170.671 120.75C171.288 121.017 171.854 121.292 172.371 121.575C172.904 121.842 173.346 122.242 173.696 122.775C174.046 123.292 174.221 123.942 174.221 124.725C174.221 125.508 173.946 126.175 173.396 126.725C172.846 127.275 172.229 127.642 171.546 127.825C170.879 128.008 170.154 128.1 169.371 128.1C167.671 128.1 166.396 127.725 165.546 126.975L165.696 126.825C166.029 127.142 166.521 127.4 167.171 127.6C167.838 127.8 168.479 127.9 169.096 127.9C170.079 127.9 170.888 127.633 171.521 127.1C172.171 126.55 172.496 125.875 172.496 125.075C172.496 124.258 172.254 123.608 171.771 123.125C171.288 122.625 170.696 122.242 169.996 121.975C169.313 121.692 168.621 121.417 167.921 121.15C167.221 120.867 166.629 120.483 166.146 120C165.663 119.5 165.421 118.925 165.421 118.275C165.421 117.625 165.571 117.1 165.871 116.7C166.171 116.283 166.571 115.992 167.071 115.825C167.921 115.542 168.771 115.4 169.621 115.4C171.054 115.4 172.171 115.667 172.971 116.2L172.846 116.375ZM186.418 128C185.284 128 184.509 127.783 184.093 127.35C183.709 126.983 183.518 126.667 183.518 126.4V125.875C182.701 127.358 181.393 128.1 179.593 128.1C177.493 128.1 176.301 127.15 176.018 125.25C175.984 125.05 175.968 124.85 175.968 124.65C175.968 124.433 176.001 124.2 176.068 123.95C176.134 123.7 176.326 123.425 176.643 123.125C177.276 122.525 178.668 122.158 180.818 122.025C181.351 121.975 181.843 121.95 182.293 121.95C182.743 121.95 183.151 121.967 183.518 122V117.85C183.484 117.833 183.484 117.758 183.518 117.625C183.551 117.475 183.518 117.292 183.418 117.075C183.334 116.842 183.218 116.617 183.068 116.4C182.918 116.183 182.651 116 182.268 115.85C181.884 115.683 181.384 115.6 180.768 115.6C180.151 115.6 179.426 115.717 178.593 115.95C177.776 116.167 177.176 116.383 176.793 116.6L176.693 116.425C178.176 115.742 179.684 115.4 181.218 115.4C182.934 115.4 184.068 115.708 184.618 116.325C185.051 116.808 185.268 117.317 185.268 117.85V126.225C185.268 126.708 185.359 127.083 185.543 127.35C185.743 127.6 185.943 127.733 186.143 127.75L186.418 127.8H187.193V128H186.418ZM179.993 127.9C180.876 127.9 181.668 127.6 182.368 127C183.084 126.383 183.468 125.792 183.518 125.225V122.2C183.068 122.167 182.609 122.15 182.143 122.15C181.693 122.15 181.243 122.175 180.793 122.225C179.526 122.375 178.701 122.658 178.318 123.075C177.934 123.492 177.743 124.067 177.743 124.8C177.743 124.933 177.751 125.083 177.768 125.25C177.918 127.017 178.659 127.9 179.993 127.9ZM192.232 128C190.765 128 189.84 127.617 189.457 126.85C189.373 126.683 189.332 126.533 189.332 126.4V109.275H191.082V126.225C191.082 126.708 191.173 127.083 191.357 127.35C191.557 127.6 191.757 127.733 191.957 127.75L192.232 127.8H193.007V128H192.232ZM194.278 122.2C194.278 120.033 194.803 118.358 195.853 117.175C196.903 115.992 198.478 115.4 200.578 115.4C202.128 115.4 203.703 115.675 205.303 116.225V128.3C205.287 132.267 203.553 134.25 200.103 134.25C198.203 134.25 196.578 133.633 195.228 132.4L195.403 132.25C196.837 133.45 198.403 134.05 200.103 134.05C202.403 134.05 203.553 132.133 203.553 128.3V125.825C203.237 126.408 202.712 126.925 201.978 127.375C201.245 127.825 200.378 128.05 199.378 128.05C195.978 127.967 194.278 126.017 194.278 122.2ZM199.403 127.85C200.52 127.85 201.478 127.55 202.278 126.95C203.078 126.35 203.503 125.758 203.553 125.175V116.35C202.353 115.85 201.337 115.6 200.503 115.6C199.02 115.6 197.903 116.183 197.153 117.35C196.403 118.5 196.028 120.117 196.028 122.2C196.028 125.967 197.153 127.85 199.403 127.85ZM217.497 128C216.364 128 215.589 127.783 215.172 127.35C214.789 126.983 214.597 126.667 214.597 126.4V125.875C213.78 127.358 212.472 128.1 210.672 128.1C208.572 128.1 207.38 127.15 207.097 125.25C207.064 125.05 207.047 124.85 207.047 124.65C207.047 124.433 207.08 124.2 207.147 123.95C207.214 123.7 207.405 123.425 207.722 123.125C208.355 122.525 209.747 122.158 211.897 122.025C212.43 121.975 212.922 121.95 213.372 121.95C213.822 121.95 214.23 121.967 214.597 122V117.85C214.564 117.833 214.564 117.758 214.597 117.625C214.63 117.475 214.597 117.292 214.497 117.075C214.414 116.842 214.297 116.617 214.147 116.4C213.997 116.183 213.73 116 213.347 115.85C212.964 115.683 212.464 115.6 211.847 115.6C211.23 115.6 210.505 115.717 209.672 115.95C208.855 116.167 208.255 116.383 207.872 116.6L207.772 116.425C209.255 115.742 210.764 115.4 212.297 115.4C214.014 115.4 215.147 115.708 215.697 116.325C216.13 116.808 216.347 117.317 216.347 117.85V126.225C216.347 126.708 216.439 127.083 216.622 127.35C216.822 127.6 217.022 127.733 217.222 127.75L217.497 127.8H218.272V128H217.497ZM211.072 127.9C211.955 127.9 212.747 127.6 213.447 127C214.164 126.383 214.547 125.792 214.597 125.225V122.2C214.147 122.167 213.689 122.15 213.222 122.15C212.772 122.15 212.322 122.175 211.872 122.225C210.605 122.375 209.78 122.658 209.397 123.075C209.014 123.492 208.822 124.067 208.822 124.8C208.822 124.933 208.83 125.083 208.847 125.25C208.997 127.017 209.739 127.9 211.072 127.9ZM219.647 122.2C219.647 120.033 220.172 118.358 221.222 117.175C222.272 115.992 223.847 115.4 225.947 115.4C226.931 115.4 227.922 115.65 228.922 116.15V109.275H230.672V126.225C230.672 126.708 230.764 127.083 230.947 127.35C231.147 127.6 231.347 127.733 231.547 127.75L231.822 127.8H232.597V128H231.072C230.389 128 229.864 127.85 229.497 127.55C229.147 127.25 228.964 126.95 228.947 126.65L228.922 126.225V125.825C228.606 126.408 228.081 126.925 227.347 127.375C226.614 127.825 225.747 128.05 224.747 128.05C221.347 127.967 219.647 126.017 219.647 122.2ZM224.772 127.85C225.889 127.85 226.847 127.55 227.647 126.95C228.447 126.35 228.872 125.758 228.922 125.175V116.375C227.739 115.858 226.722 115.6 225.872 115.6C224.389 115.6 223.272 116.183 222.522 117.35C221.772 118.5 221.397 120.117 221.397 122.2C221.397 125.967 222.522 127.85 224.772 127.85ZM239.269 128.1C237.519 128.1 236.094 127.6 234.994 126.6C233.894 125.6 233.344 124.058 233.344 121.975C233.344 119.892 233.91 118.275 235.044 117.125C236.194 115.975 237.644 115.4 239.394 115.4C241.16 115.4 242.594 115.9 243.694 116.9C244.794 117.9 245.344 119.442 245.344 121.525C245.344 123.608 244.769 125.225 243.619 126.375C242.485 127.525 241.035 128.1 239.269 128.1ZM239.444 115.6C238.177 115.6 237.127 116.167 236.294 117.3C235.46 118.417 235.044 119.983 235.044 122C235.044 124 235.427 125.483 236.194 126.45C236.96 127.417 237.977 127.9 239.244 127.9C240.51 127.9 241.56 127.342 242.394 126.225C243.227 125.092 243.644 123.525 243.644 121.525C243.644 119.508 243.26 118.017 242.494 117.05C241.727 116.083 240.71 115.6 239.444 115.6ZM254.145 116.375C253.878 116.158 253.445 115.975 252.845 115.825C252.261 115.675 251.82 115.6 251.52 115.6C251.22 115.6 251.045 115.6 250.995 115.6C250.095 115.617 249.445 115.85 249.045 116.3C248.645 116.733 248.445 117.225 248.445 117.775C248.445 118.325 248.62 118.792 248.97 119.175C249.32 119.542 249.753 119.833 250.27 120.05C250.803 120.25 251.37 120.483 251.97 120.75C252.586 121.017 253.153 121.292 253.67 121.575C254.203 121.842 254.645 122.242 254.995 122.775C255.345 123.292 255.52 123.942 255.52 124.725C255.52 125.508 255.245 126.175 254.695 126.725C254.145 127.275 253.528 127.642 252.845 127.825C252.178 128.008 251.453 128.1 250.67 128.1C248.97 128.1 247.695 127.725 246.845 126.975L246.995 126.825C247.328 127.142 247.82 127.4 248.47 127.6C249.136 127.8 249.778 127.9 250.395 127.9C251.378 127.9 252.186 127.633 252.82 127.1C253.47 126.55 253.795 125.875 253.795 125.075C253.795 124.258 253.553 123.608 253.07 123.125C252.586 122.625 251.995 122.242 251.295 121.975C250.611 121.692 249.92 121.417 249.22 121.15C248.52 120.867 247.928 120.483 247.445 120C246.961 119.5 246.72 118.925 246.72 118.275C246.72 117.625 246.87 117.1 247.17 116.7C247.47 116.283 247.87 115.992 248.37 115.825C249.22 115.542 250.07 115.4 250.92 115.4C252.353 115.4 253.47 115.667 254.27 116.2L254.145 116.375Z" fill="#292B2D"/>
</svg>
