<svg width="279" height="120" viewBox="0 0 279 120" fill="none" xmlns="http://www.w3.org/2000/svg">
<path d="M11 96.4053C97.0119 77.2916 179.807 48.6286 268.659 45.3378" stroke="#EECCAA" stroke-width="20" stroke-linecap="round"/>
<path d="M27.5407 89H26.2927L34.6447 21.8H37.8127L57.9727 83.912L78.0367 21.8H81.2047L89.5567 89H81.5887L74.9647 35.24L57.5887 89H51.5407L33.9727 35.912L27.5407 89ZM100.303 89H99.1515L127.855 21.8L128.911 21.32L153.103 89H144.943L137.455 67.88H109.423L100.303 89ZM124.879 32.168L109.807 66.92H137.167L124.879 32.168ZM161.846 22.76V21.8H201.014V22.76L167.126 88.04H196.022C197.878 88.04 199.574 87.72 201.11 87.08C202.646 86.44 203.67 85.512 204.182 84.296L204.95 84.68C204.822 85 204.598 85.416 204.278 85.928C204.022 86.376 203.158 87.016 201.686 87.848C200.214 88.616 198.422 89 196.31 89H159.35V88.04L193.046 22.76H161.846ZM249.391 21.8V22.76H219.151V51.56H247.183V52.52H219.151V88.04H251.503V89H211.183V21.8H249.391ZM235.951 3.464L242.863 3.27199L232.783 17H231.535L235.951 3.464Z" fill="#0C1713"/>
<path d="M32.9027 100.6C31.7194 100.6 30.7277 101.167 29.9277 102.3C29.1444 103.433 28.7527 105 28.7527 107C28.7527 109 29.1111 110.483 29.8277 111.45C30.5611 112.417 31.5194 112.9 32.7027 112.9C34.1861 112.9 35.5027 112.65 36.6527 112.15L36.7277 112.325C35.5444 112.842 34.1611 113.1 32.5777 113.1C30.9944 113.1 29.6777 112.6 28.6277 111.6C27.5777 110.6 27.0527 109.058 27.0527 106.975C27.0527 104.892 27.6027 103.275 28.7027 102.125C29.8027 100.975 31.2027 100.4 32.9027 100.4C33.8527 100.4 34.7277 100.617 35.5277 101.05C36.3444 101.483 36.9444 102.142 37.3277 103.025H35.7277C35.4777 102.208 35.0944 101.6 34.5777 101.2C34.0777 100.8 33.5194 100.6 32.9027 100.6ZM44.5256 113.1C42.7756 113.1 41.3506 112.6 40.2506 111.6C39.1506 110.6 38.6006 109.058 38.6006 106.975C38.6006 104.892 39.1673 103.275 40.3006 102.125C41.4506 100.975 42.9006 100.4 44.6506 100.4C46.4173 100.4 47.8506 100.9 48.9506 101.9C50.0506 102.9 50.6006 104.442 50.6006 106.525C50.6006 108.608 50.0256 110.225 48.8756 111.375C47.7423 112.525 46.2923 113.1 44.5256 113.1ZM44.7006 100.6C43.4339 100.6 42.3839 101.167 41.5506 102.3C40.7173 103.417 40.3006 104.983 40.3006 107C40.3006 109 40.6839 110.483 41.4506 111.45C42.2173 112.417 43.2339 112.9 44.5006 112.9C45.7673 112.9 46.8173 112.342 47.6506 111.225C48.4839 110.092 48.9006 108.525 48.9006 106.525C48.9006 104.508 48.5173 103.017 47.7506 102.05C46.9839 101.083 45.9673 100.6 44.7006 100.6ZM62.4766 113C61.7932 113 61.2682 112.85 60.9016 112.55C60.5516 112.25 60.3682 111.95 60.3516 111.65L60.3266 111.225V103.375C60.3266 102.058 59.9849 101.217 59.3016 100.85C58.9516 100.683 58.5182 100.6 58.0016 100.6C56.9349 100.6 55.9766 101.025 55.1266 101.875C54.2766 102.708 53.8516 103.458 53.8516 104.125V113H52.1016V100.5H53.8516V103.35C54.1349 102.633 54.6599 101.967 55.4266 101.35C56.1932 100.717 57.0349 100.4 57.9516 100.4C58.8682 100.4 59.6099 100.492 60.1766 100.675C60.7599 100.842 61.1849 101.083 61.4516 101.4C61.8682 101.917 62.0766 102.583 62.0766 103.4V111.225C62.0766 111.708 62.1682 112.083 62.3516 112.35C62.5516 112.6 62.7516 112.733 62.9516 112.75L63.2266 112.8H64.0016V113H62.4766ZM67.4107 99.325V100.5H69.3857V100.7H67.4107V113H65.6607V100.7H65.1357V100.5H65.6607V99.325C65.6607 97.5083 66.0524 96.2167 66.8357 95.45C67.6191 94.6667 68.8857 94.2667 70.6357 94.25V94.45C69.4857 94.4667 68.6607 94.8583 68.1607 95.625C67.6607 96.375 67.4107 97.6083 67.4107 99.325ZM72.8445 106.9C72.8445 108.967 73.2029 110.483 73.9195 111.45C74.6529 112.417 75.6112 112.9 76.7945 112.9C78.4612 112.9 79.9445 112.65 81.2445 112.15L81.3195 112.325C79.9862 112.842 78.4779 113.1 76.7945 113.1C75.1279 113.1 73.7695 112.6 72.7195 111.6C71.6695 110.6 71.1445 109.058 71.1445 106.975C71.1445 104.892 71.6945 103.275 72.7945 102.125C73.8945 100.975 75.2945 100.4 76.9945 100.4C78.3612 100.4 79.5112 100.808 80.4445 101.625C81.3779 102.442 81.8445 103.65 81.8445 105.25C81.8445 105.333 81.8445 105.417 81.8445 105.5H72.9195C72.8695 105.95 72.8445 106.417 72.8445 106.9ZM80.1445 105.3C80.1279 103.7 79.8195 102.517 79.2195 101.75C78.6195 100.983 77.8445 100.6 76.8945 100.6C75.9445 100.6 75.0945 101.017 74.3445 101.85C73.6112 102.683 73.1445 103.833 72.9445 105.3H80.1445ZM85.4133 113C84.7299 113 84.2049 112.85 83.8383 112.55C83.4883 112.25 83.3049 111.95 83.2883 111.65L83.2633 111.225V100.5H85.0133V111.225C85.0133 111.708 85.1049 112.083 85.2883 112.35C85.4883 112.6 85.6799 112.733 85.8633 112.75L86.1633 112.8H86.9383V113H85.4133ZM83.4133 97.7C83.2133 97.5 83.1133 97.25 83.1133 96.95C83.1133 96.65 83.2133 96.4 83.4133 96.2C83.6133 95.9833 83.8633 95.875 84.1633 95.875C84.4633 95.875 84.7133 95.9833 84.9133 96.2C85.1299 96.4 85.2383 96.65 85.2383 96.95C85.2383 97.25 85.1299 97.5 84.9133 97.7C84.7133 97.9 84.4633 98 84.1633 98C83.8633 98 83.6133 97.9 83.4133 97.7ZM88.8174 100.7V100.5H89.3424V98H91.0924V100.5H94.9174V100.7H91.0924V109.8C91.0924 110.883 91.209 111.667 91.4424 112.15C91.6924 112.633 92.2007 112.875 92.9674 112.875C93.7507 112.875 94.5424 112.717 95.3424 112.4L95.4174 112.6C94.584 112.917 93.6257 113.075 92.5424 113.075C91.4757 113.075 90.6757 112.858 90.1424 112.425C89.609 111.975 89.3424 111.092 89.3424 109.775V100.7H88.8174ZM101.972 113.1C100.222 113.1 98.7969 112.6 97.6969 111.6C96.5969 110.6 96.0469 109.058 96.0469 106.975C96.0469 104.892 96.6135 103.275 97.7469 102.125C98.8969 100.975 100.347 100.4 102.097 100.4C103.864 100.4 105.297 100.9 106.397 101.9C107.497 102.9 108.047 104.442 108.047 106.525C108.047 108.608 107.472 110.225 106.322 111.375C105.189 112.525 103.739 113.1 101.972 113.1ZM102.147 100.6C100.88 100.6 99.8302 101.167 98.9969 102.3C98.1635 103.417 97.7469 104.983 97.7469 107C97.7469 109 98.1302 110.483 98.8969 111.45C99.6635 112.417 100.68 112.9 101.947 112.9C103.214 112.9 104.264 112.342 105.097 111.225C105.93 110.092 106.347 108.525 106.347 106.525C106.347 104.508 105.964 103.017 105.197 102.05C104.43 101.083 103.414 100.6 102.147 100.6ZM116.848 101.375C116.581 101.158 116.148 100.975 115.548 100.825C114.965 100.675 114.523 100.6 114.223 100.6C113.923 100.6 113.748 100.6 113.698 100.6C112.798 100.617 112.148 100.85 111.748 101.3C111.348 101.733 111.148 102.225 111.148 102.775C111.148 103.325 111.323 103.792 111.673 104.175C112.023 104.542 112.456 104.833 112.973 105.05C113.506 105.25 114.073 105.483 114.673 105.75C115.29 106.017 115.856 106.292 116.373 106.575C116.906 106.842 117.348 107.242 117.698 107.775C118.048 108.292 118.223 108.942 118.223 109.725C118.223 110.508 117.948 111.175 117.398 111.725C116.848 112.275 116.231 112.642 115.548 112.825C114.881 113.008 114.156 113.1 113.373 113.1C111.673 113.1 110.398 112.725 109.548 111.975L109.698 111.825C110.031 112.142 110.523 112.4 111.173 112.6C111.84 112.8 112.481 112.9 113.098 112.9C114.081 112.9 114.89 112.633 115.523 112.1C116.173 111.55 116.498 110.875 116.498 110.075C116.498 109.258 116.256 108.608 115.773 108.125C115.29 107.625 114.698 107.242 113.998 106.975C113.315 106.692 112.623 106.417 111.923 106.15C111.223 105.867 110.631 105.483 110.148 105C109.665 104.5 109.423 103.925 109.423 103.275C109.423 102.625 109.573 102.1 109.873 101.7C110.173 101.283 110.573 100.992 111.073 100.825C111.923 100.542 112.773 100.4 113.623 100.4C115.056 100.4 116.173 100.667 116.973 101.2L116.848 101.375ZM141.94 103.2V102.95H148.115V103.2H146.74C145.84 105.65 144.349 107.85 142.265 109.8C141.249 110.75 140.057 111.525 138.69 112.125C137.324 112.708 135.915 113 134.465 113C133.082 113 131.815 112.733 130.665 112.2C129.999 111.9 129.407 111.517 128.89 111.05C128.39 110.567 127.974 109.925 127.64 109.125C127.307 108.308 127.14 107.375 127.14 106.325C127.14 104.275 127.765 102.55 129.015 101.15C130.282 99.7333 131.715 99.025 133.315 99.025C136.215 99.025 137.715 100.317 137.815 102.9L141.965 99.625L142.14 99.775L129.74 109.525C130.157 110.525 130.749 111.317 131.515 111.9C132.299 112.467 133.274 112.75 134.44 112.75C135.624 112.75 136.799 112.458 137.965 111.875C139.149 111.275 140.174 110.5 141.04 109.55C142.79 107.617 144.024 105.5 144.74 103.2H141.94ZM135.84 104.475C135.824 102.575 135.632 101.233 135.265 100.45C134.915 99.6667 134.315 99.275 133.465 99.275C132.632 99.275 131.924 99.5 131.34 99.95C130.774 100.383 130.332 100.958 130.015 101.675C129.432 103.058 129.14 104.567 129.14 106.2L129.19 107.3C129.274 108.05 129.424 108.733 129.64 109.35L135.84 104.475ZM164.846 101.375C164.579 101.158 164.146 100.975 163.546 100.825C162.963 100.675 162.521 100.6 162.221 100.6C161.921 100.6 161.746 100.6 161.696 100.6C160.796 100.617 160.146 100.85 159.746 101.3C159.346 101.733 159.146 102.225 159.146 102.775C159.146 103.325 159.321 103.792 159.671 104.175C160.021 104.542 160.454 104.833 160.971 105.05C161.504 105.25 162.071 105.483 162.671 105.75C163.288 106.017 163.854 106.292 164.371 106.575C164.904 106.842 165.346 107.242 165.696 107.775C166.046 108.292 166.221 108.942 166.221 109.725C166.221 110.508 165.946 111.175 165.396 111.725C164.846 112.275 164.229 112.642 163.546 112.825C162.879 113.008 162.154 113.1 161.371 113.1C159.671 113.1 158.396 112.725 157.546 111.975L157.696 111.825C158.029 112.142 158.521 112.4 159.171 112.6C159.838 112.8 160.479 112.9 161.096 112.9C162.079 112.9 162.888 112.633 163.521 112.1C164.171 111.55 164.496 110.875 164.496 110.075C164.496 109.258 164.254 108.608 163.771 108.125C163.288 107.625 162.696 107.242 161.996 106.975C161.313 106.692 160.621 106.417 159.921 106.15C159.221 105.867 158.629 105.483 158.146 105C157.663 104.5 157.421 103.925 157.421 103.275C157.421 102.625 157.571 102.1 157.871 101.7C158.171 101.283 158.571 100.992 159.071 100.825C159.921 100.542 160.771 100.4 161.621 100.4C163.054 100.4 164.171 100.667 164.971 101.2L164.846 101.375ZM178.418 113C177.284 113 176.509 112.783 176.093 112.35C175.709 111.983 175.518 111.667 175.518 111.4V110.875C174.701 112.358 173.393 113.1 171.593 113.1C169.493 113.1 168.301 112.15 168.018 110.25C167.984 110.05 167.968 109.85 167.968 109.65C167.968 109.433 168.001 109.2 168.068 108.95C168.134 108.7 168.326 108.425 168.643 108.125C169.276 107.525 170.668 107.158 172.818 107.025C173.351 106.975 173.843 106.95 174.293 106.95C174.743 106.95 175.151 106.967 175.518 107V102.85C175.484 102.833 175.484 102.758 175.518 102.625C175.551 102.475 175.518 102.292 175.418 102.075C175.334 101.842 175.218 101.617 175.068 101.4C174.918 101.183 174.651 101 174.268 100.85C173.884 100.683 173.384 100.6 172.768 100.6C172.151 100.6 171.426 100.717 170.593 100.95C169.776 101.167 169.176 101.383 168.793 101.6L168.693 101.425C170.176 100.742 171.684 100.4 173.218 100.4C174.934 100.4 176.068 100.708 176.618 101.325C177.051 101.808 177.268 102.317 177.268 102.85V111.225C177.268 111.708 177.359 112.083 177.543 112.35C177.743 112.6 177.943 112.733 178.143 112.75L178.418 112.8H179.193V113H178.418ZM171.993 112.9C172.876 112.9 173.668 112.6 174.368 112C175.084 111.383 175.468 110.792 175.518 110.225V107.2C175.068 107.167 174.609 107.15 174.143 107.15C173.693 107.15 173.243 107.175 172.793 107.225C171.526 107.375 170.701 107.658 170.318 108.075C169.934 108.492 169.743 109.067 169.743 109.8C169.743 109.933 169.751 110.083 169.768 110.25C169.918 112.017 170.659 112.9 171.993 112.9ZM184.232 113C182.765 113 181.84 112.617 181.457 111.85C181.373 111.683 181.332 111.533 181.332 111.4V94.275H183.082V111.225C183.082 111.708 183.173 112.083 183.357 112.35C183.557 112.6 183.757 112.733 183.957 112.75L184.232 112.8H185.007V113H184.232ZM186.278 107.2C186.278 105.033 186.803 103.358 187.853 102.175C188.903 100.992 190.478 100.4 192.578 100.4C194.128 100.4 195.703 100.675 197.303 101.225V113.3C197.287 117.267 195.553 119.25 192.103 119.25C190.203 119.25 188.578 118.633 187.228 117.4L187.403 117.25C188.837 118.45 190.403 119.05 192.103 119.05C194.403 119.05 195.553 117.133 195.553 113.3V110.825C195.237 111.408 194.712 111.925 193.978 112.375C193.245 112.825 192.378 113.05 191.378 113.05C187.978 112.967 186.278 111.017 186.278 107.2ZM191.403 112.85C192.52 112.85 193.478 112.55 194.278 111.95C195.078 111.35 195.503 110.758 195.553 110.175V101.35C194.353 100.85 193.337 100.6 192.503 100.6C191.02 100.6 189.903 101.183 189.153 102.35C188.403 103.5 188.028 105.117 188.028 107.2C188.028 110.967 189.153 112.85 191.403 112.85ZM209.497 113C208.364 113 207.589 112.783 207.172 112.35C206.789 111.983 206.597 111.667 206.597 111.4V110.875C205.78 112.358 204.472 113.1 202.672 113.1C200.572 113.1 199.38 112.15 199.097 110.25C199.064 110.05 199.047 109.85 199.047 109.65C199.047 109.433 199.08 109.2 199.147 108.95C199.214 108.7 199.405 108.425 199.722 108.125C200.355 107.525 201.747 107.158 203.897 107.025C204.43 106.975 204.922 106.95 205.372 106.95C205.822 106.95 206.23 106.967 206.597 107V102.85C206.564 102.833 206.564 102.758 206.597 102.625C206.63 102.475 206.597 102.292 206.497 102.075C206.414 101.842 206.297 101.617 206.147 101.4C205.997 101.183 205.73 101 205.347 100.85C204.964 100.683 204.464 100.6 203.847 100.6C203.23 100.6 202.505 100.717 201.672 100.95C200.855 101.167 200.255 101.383 199.872 101.6L199.772 101.425C201.255 100.742 202.764 100.4 204.297 100.4C206.014 100.4 207.147 100.708 207.697 101.325C208.13 101.808 208.347 102.317 208.347 102.85V111.225C208.347 111.708 208.439 112.083 208.622 112.35C208.822 112.6 209.022 112.733 209.222 112.75L209.497 112.8H210.272V113H209.497ZM203.072 112.9C203.955 112.9 204.747 112.6 205.447 112C206.164 111.383 206.547 110.792 206.597 110.225V107.2C206.147 107.167 205.689 107.15 205.222 107.15C204.772 107.15 204.322 107.175 203.872 107.225C202.605 107.375 201.78 107.658 201.397 108.075C201.014 108.492 200.822 109.067 200.822 109.8C200.822 109.933 200.83 110.083 200.847 110.25C200.997 112.017 201.739 112.9 203.072 112.9ZM211.647 107.2C211.647 105.033 212.172 103.358 213.222 102.175C214.272 100.992 215.847 100.4 217.947 100.4C218.931 100.4 219.922 100.65 220.922 101.15V94.275H222.672V111.225C222.672 111.708 222.764 112.083 222.947 112.35C223.147 112.6 223.347 112.733 223.547 112.75L223.822 112.8H224.597V113H223.072C222.389 113 221.864 112.85 221.497 112.55C221.147 112.25 220.964 111.95 220.947 111.65L220.922 111.225V110.825C220.606 111.408 220.081 111.925 219.347 112.375C218.614 112.825 217.747 113.05 216.747 113.05C213.347 112.967 211.647 111.017 211.647 107.2ZM216.772 112.85C217.889 112.85 218.847 112.55 219.647 111.95C220.447 111.35 220.872 110.758 220.922 110.175V101.375C219.739 100.858 218.722 100.6 217.872 100.6C216.389 100.6 215.272 101.183 214.522 102.35C213.772 103.5 213.397 105.117 213.397 107.2C213.397 110.967 214.522 112.85 216.772 112.85ZM231.269 113.1C229.519 113.1 228.094 112.6 226.994 111.6C225.894 110.6 225.344 109.058 225.344 106.975C225.344 104.892 225.91 103.275 227.044 102.125C228.194 100.975 229.644 100.4 231.394 100.4C233.16 100.4 234.594 100.9 235.694 101.9C236.794 102.9 237.344 104.442 237.344 106.525C237.344 108.608 236.769 110.225 235.619 111.375C234.485 112.525 233.035 113.1 231.269 113.1ZM231.444 100.6C230.177 100.6 229.127 101.167 228.294 102.3C227.46 103.417 227.044 104.983 227.044 107C227.044 109 227.427 110.483 228.194 111.45C228.96 112.417 229.977 112.9 231.244 112.9C232.51 112.9 233.56 112.342 234.394 111.225C235.227 110.092 235.644 108.525 235.644 106.525C235.644 104.508 235.26 103.017 234.494 102.05C233.727 101.083 232.71 100.6 231.444 100.6ZM246.145 101.375C245.878 101.158 245.445 100.975 244.845 100.825C244.261 100.675 243.82 100.6 243.52 100.6C243.22 100.6 243.045 100.6 242.995 100.6C242.095 100.617 241.445 100.85 241.045 101.3C240.645 101.733 240.445 102.225 240.445 102.775C240.445 103.325 240.62 103.792 240.97 104.175C241.32 104.542 241.753 104.833 242.27 105.05C242.803 105.25 243.37 105.483 243.97 105.75C244.586 106.017 245.153 106.292 245.67 106.575C246.203 106.842 246.645 107.242 246.995 107.775C247.345 108.292 247.52 108.942 247.52 109.725C247.52 110.508 247.245 111.175 246.695 111.725C246.145 112.275 245.528 112.642 244.845 112.825C244.178 113.008 243.453 113.1 242.67 113.1C240.97 113.1 239.695 112.725 238.845 111.975L238.995 111.825C239.328 112.142 239.82 112.4 240.47 112.6C241.136 112.8 241.778 112.9 242.395 112.9C243.378 112.9 244.186 112.633 244.82 112.1C245.47 111.55 245.795 110.875 245.795 110.075C245.795 109.258 245.553 108.608 245.07 108.125C244.586 107.625 243.995 107.242 243.295 106.975C242.611 106.692 241.92 106.417 241.22 106.15C240.52 105.867 239.928 105.483 239.445 105C238.961 104.5 238.72 103.925 238.72 103.275C238.72 102.625 238.87 102.1 239.17 101.7C239.47 101.283 239.87 100.992 240.37 100.825C241.22 100.542 242.07 100.4 242.92 100.4C244.353 100.4 245.47 100.667 246.27 101.2L246.145 101.375Z" fill="#292B2D"/>
</svg>
