<svg width="745" height="595" viewBox="0 0 745 595" fill="none" xmlns="http://www.w3.org/2000/svg">
<g clip-path="url(#clip0_0_1)">
<path d="M332.04 490.91C366.895 490.91 395.15 484.664 395.15 476.96C395.15 469.256 366.895 463.01 332.04 463.01C297.185 463.01 268.93 469.256 268.93 476.96C268.93 484.664 297.185 490.91 332.04 490.91Z" fill="black"/>
<path d="M332.04 476.96L296.59 587.91" stroke="black" stroke-width="4" stroke-miterlimit="10" stroke-linecap="round"/>
<path d="M332.04 476.96L367.49 587.91" stroke="black" stroke-width="4" stroke-miterlimit="10" stroke-linecap="round"/>
<path d="M308.23 551.48L347.75 526.14" stroke="black" stroke-width="2" stroke-miterlimit="10" stroke-linecap="round"/>
<path d="M316.17 526.14L355.7 551.48" stroke="black" stroke-width="2" stroke-miterlimit="10" stroke-linecap="round"/>
<path d="M394.15 356.86C393.99 361.78 394.06 379.01 393.25 386.38" stroke="#1F161E" stroke-miterlimit="10" stroke-linecap="round"/>
<path d="M191.12 138.96C191.12 135.464 188.286 132.63 184.79 132.63C181.294 132.63 178.46 135.464 178.46 138.96V160.81C178.46 164.306 181.294 167.14 184.79 167.14C188.286 167.14 191.12 164.306 191.12 160.81V138.96Z" fill="black"/>
<path d="M184.79 203.87C191.804 203.87 197.49 198.184 197.49 191.17C197.49 184.156 191.804 178.47 184.79 178.47C177.776 178.47 172.09 184.156 172.09 191.17C172.09 198.184 177.776 203.87 184.79 203.87Z" fill="#FBDC8E"/>
<path d="M609.37 342H615.37C616 341.997 616.604 341.746 617.05 341.3C617.496 340.854 617.747 340.25 617.75 339.62V302.74C617.751 302.427 617.689 302.118 617.569 301.829C617.449 301.541 617.273 301.279 617.05 301.06L609.47 293.48C609.25 293.258 608.988 293.082 608.7 292.962C608.412 292.842 608.102 292.78 607.79 292.78H585.4C584.77 292.783 584.166 293.034 583.72 293.48C583.274 293.926 583.023 294.53 583.02 295.16V298.72" fill="#FBDC8E"/>
<path d="M88.06 430C107.06 433.6 103.67 547 67.2 540.14C32.76 533.6 64.88 425.59 88.06 430Z" fill="black"/>
<path d="M4.64 444C19.76 435.44 83.05 515.08 54.1 531.46C26.75 547 -13.77 454.44 4.64 444Z" fill="#1D5623"/>
<path d="M81.69 594.92H43.51C41.9722 594.92 40.4885 594.352 39.3428 593.326C38.1971 592.301 37.4698 590.888 37.3 589.36L32.48 546.08C32.3755 545.202 32.4581 544.312 32.7224 543.469C32.9866 542.625 33.4266 541.847 34.0133 541.186C34.5999 540.524 35.32 539.995 36.1261 539.632C36.9322 539.269 37.806 539.081 38.69 539.08H86.31C87.1869 539.081 88.054 539.266 88.8547 539.623C89.6554 539.981 90.3719 540.503 90.9576 541.156C91.5433 541.808 91.9851 542.577 92.2543 543.412C92.5235 544.246 92.614 545.128 92.52 546L87.91 589.28C87.7563 590.824 87.035 592.255 85.8858 593.297C84.7365 594.339 83.2413 594.918 81.69 594.92Z" fill="#969696"/>
<path d="M98.79 385.84C113.26 390.04 102.17 477.57 74.46 469.51C48.3 461.91 81.18 380.72 98.79 385.84Z" fill="#19A427"/>
<path d="M122.65 455.48C132.65 464.1 91.97 530.04 72.75 513.48C54.6 497.91 110.44 445 122.65 455.48Z" fill="#1D5623"/>
<path d="M62.7 394.94C84.36 394.94 104.19 533.24 62.7 533.24C23.52 533.24 36.33 394.94 62.7 394.94Z" fill="#5BAB63"/>
<path d="M100.71 529.72H24.51C22.2732 529.72 20.46 531.533 20.46 533.77V541.15C20.46 543.387 22.2732 545.2 24.51 545.2H100.71C102.947 545.2 104.76 543.387 104.76 541.15V533.77C104.76 531.533 102.947 529.72 100.71 529.72Z" fill="#D8D8D8"/>
<path d="M599.29 298.72H577.29C576.937 298.72 576.588 298.79 576.262 298.925C575.936 299.06 575.64 299.259 575.391 299.508C575.142 299.758 574.945 300.055 574.811 300.381C574.677 300.708 574.609 301.057 574.61 301.41V345.21C574.61 345.922 574.892 346.604 575.394 347.109C575.897 347.613 576.578 347.897 577.29 347.9H606.68C607.392 347.897 608.073 347.613 608.576 347.109C609.078 346.604 609.36 345.922 609.36 345.21V308.81C609.361 308.458 609.293 308.108 609.159 307.782C609.025 307.456 608.829 307.16 608.58 306.91L601.18 299.51C600.68 299.007 600 298.723 599.29 298.72V298.72Z" fill="#D8D8D8"/>
<path d="M609.37 307.76H601.9C601.502 307.76 601.121 307.602 600.839 307.321C600.558 307.039 600.4 306.658 600.4 306.26V298.72" fill="#969696"/>
<path d="M617.78 301.83H610.31C609.91 301.827 609.528 301.667 609.245 301.385C608.963 301.102 608.803 300.72 608.8 300.32V292.78" fill="#64CCC4"/>
<path d="M574.64 248.65H523.08C521.407 248.65 520.05 250.007 520.05 251.68V268.52C520.05 270.193 521.407 271.55 523.08 271.55H574.64C576.313 271.55 577.67 270.193 577.67 268.52V251.68C577.67 250.007 576.313 248.65 574.64 248.65Z" fill="#78E5E1"/>
<path d="M548.85 287.25L555.79 266.23H541.91L548.85 287.25Z" fill="#78E5E1"/>
<path d="M535.1 254.75L529.28 264.82H540.91L535.1 254.75Z" fill="white"/>
<path d="M562.61 264.82L568.43 254.75H556.79L562.61 264.82Z" fill="white"/>
<path d="M548.85 264.16C551.263 264.16 553.22 262.203 553.22 259.79C553.22 257.377 551.263 255.42 548.85 255.42C546.437 255.42 544.48 257.377 544.48 259.79C544.48 262.203 546.437 264.16 548.85 264.16Z" fill="white"/>
<path d="M544.36 200.12H510.52C509.056 200.12 507.87 201.306 507.87 202.77V223.23C507.87 224.694 509.056 225.88 510.52 225.88H544.36C545.824 225.88 547.01 224.694 547.01 223.23V202.77C547.01 201.306 545.824 200.12 544.36 200.12Z" fill="#D8D8D8"/>
<path d="M509.1 200.93L527.44 213" stroke="#969696" stroke-width="0.82" stroke-linecap="round" stroke-linejoin="round"/>
<path d="M547.01 200.12L527.44 213" stroke="#969696" stroke-width="0.82" stroke-linecap="round" stroke-linejoin="round"/>
<path d="M547.01 205.72C550.103 205.72 552.61 203.213 552.61 200.12C552.61 197.027 550.103 194.52 547.01 194.52C543.917 194.52 541.41 197.027 541.41 200.12C541.41 203.213 543.917 205.72 547.01 205.72Z" fill="#FBDC8E"/>
<path d="M547.989 201.98H547.326V197.585L545.996 198.073V197.475L547.885 196.765H547.989V201.98Z" fill="white"/>
<path d="M743.43 215.83H597.43C596.751 215.83 596.2 216.381 596.2 217.06V217.82C596.2 218.499 596.751 219.05 597.43 219.05H743.43C744.109 219.05 744.66 218.499 744.66 217.82V217.06C744.66 216.381 744.109 215.83 743.43 215.83Z" fill="#D8D8D8"/>
<path d="M659.1 151.89H650.23C648.816 151.89 647.67 153.036 647.67 154.45V213.27C647.67 214.684 648.816 215.83 650.23 215.83H659.1C660.514 215.83 661.66 214.684 661.66 213.27V154.45C661.66 153.036 660.514 151.89 659.1 151.89Z" fill="#969696"/>
<path d="M666.53 166.88H663.79C662.614 166.88 661.66 167.834 661.66 169.01V213.7C661.66 214.876 662.614 215.83 663.79 215.83H666.53C667.706 215.83 668.66 214.876 668.66 213.7V169.01C668.66 167.834 667.706 166.88 666.53 166.88Z" fill="#D8D8D8"/>
<path d="M673.6 166.88H670.72C669.582 166.88 668.66 167.802 668.66 168.94V213.77C668.66 214.908 669.582 215.83 670.72 215.83H673.6C674.738 215.83 675.66 214.908 675.66 213.77V168.94C675.66 167.802 674.738 166.88 673.6 166.88Z" fill="#969696"/>
<path d="M678.676 170.383L676.313 171.468C675.209 171.975 674.725 173.281 675.232 174.385L693.819 214.872C694.326 215.977 695.632 216.461 696.737 215.954L699.1 214.869C700.204 214.362 700.688 213.056 700.181 211.952L681.593 171.465C681.086 170.361 679.78 169.876 678.676 170.383Z" fill="#D8D8D8"/>
<path d="M654.66 199.65C656.819 199.65 658.57 197.899 658.57 195.74C658.57 193.581 656.819 191.83 654.66 191.83C652.501 191.83 650.75 193.581 650.75 195.74C650.75 197.899 652.501 199.65 654.66 199.65Z" fill="#D8D8D8"/>
<path d="M658.2 201.99H651.12C650.601 201.99 650.18 202.411 650.18 202.93C650.18 203.449 650.601 203.87 651.12 203.87H658.2C658.719 203.87 659.14 203.449 659.14 202.93C659.14 202.411 658.719 201.99 658.2 201.99Z" fill="#D8D8D8"/>
<path d="M658.2 206.8H651.12C650.601 206.8 650.18 207.221 650.18 207.74C650.18 208.259 650.601 208.68 651.12 208.68H658.2C658.719 208.68 659.14 208.259 659.14 207.74C659.14 207.221 658.719 206.8 658.2 206.8Z" fill="#D8D8D8"/>
<path d="M586.56 303.24H579.48C578.961 303.24 578.54 303.661 578.54 304.18C578.54 304.699 578.961 305.12 579.48 305.12H586.56C587.079 305.12 587.5 304.699 587.5 304.18C587.5 303.661 587.079 303.24 586.56 303.24Z" fill="#969696"/>
<path d="M586.56 307.76H579.48C578.961 307.76 578.54 308.181 578.54 308.7C578.54 309.219 578.961 309.64 579.48 309.64H586.56C587.079 309.64 587.5 309.219 587.5 308.7C587.5 308.181 587.079 307.76 586.56 307.76Z" fill="#969696"/>
<path d="M604.92 315.49H579.07C578.551 315.49 578.13 315.911 578.13 316.43C578.13 316.949 578.551 317.37 579.07 317.37H604.92C605.439 317.37 605.86 316.949 605.86 316.43C605.86 315.911 605.439 315.49 604.92 315.49Z" fill="#969696"/>
<path d="M604.92 319.93H579.07C578.551 319.93 578.13 320.351 578.13 320.87C578.13 321.389 578.551 321.81 579.07 321.81H604.92C605.439 321.81 605.86 321.389 605.86 320.87C605.86 320.351 605.439 319.93 604.92 319.93Z" fill="#969696"/>
<path d="M604.92 324.37H579.07C578.551 324.37 578.13 324.791 578.13 325.31C578.13 325.829 578.551 326.25 579.07 326.25H604.92C605.439 326.25 605.86 325.829 605.86 325.31C605.86 324.791 605.439 324.37 604.92 324.37Z" fill="#969696"/>
<path d="M665.89 174.27C665.89 173.867 665.563 173.54 665.16 173.54C664.757 173.54 664.43 173.867 664.43 174.27V208.43C664.43 208.833 664.757 209.16 665.16 209.16C665.563 209.16 665.89 208.833 665.89 208.43V174.27Z" fill="#969696"/>
<path d="M635.18 217.44H628.92C627.545 217.44 626.43 218.555 626.43 219.93C626.43 221.305 627.545 222.42 628.92 222.42H635.18C636.555 222.42 637.67 221.305 637.67 219.93C637.67 218.555 636.555 217.44 635.18 217.44Z" fill="#D8D8D8"/>
<path d="M711.94 217.44H705.68C704.305 217.44 703.19 218.555 703.19 219.93C703.19 221.305 704.305 222.42 705.68 222.42H711.94C713.315 222.42 714.43 221.305 714.43 219.93C714.43 218.555 713.315 217.44 711.94 217.44Z" fill="#D8D8D8"/>
<path d="M475.65 222.31H439.14C432.513 222.31 427.14 227.683 427.14 234.31V252.12C427.14 258.747 432.513 264.12 439.14 264.12H475.65C482.277 264.12 487.65 258.747 487.65 252.12V234.31C487.65 227.683 482.277 222.31 475.65 222.31Z" fill="#D8D8D8"/>
<path d="M448.76 229.04H439.66V257.39H448.76V229.04Z" fill="#AB8DE5"/>
<path d="M461.95 247.9H452.85V257.4H461.95V247.9Z" fill="#AB8DE5"/>
<path d="M475.13 239.9H466.03V257.39H475.13V239.9Z" fill="#AB8DE5"/>
<path d="M184.79 152.88C179.761 152.879 174.781 153.868 170.134 155.792C165.487 157.715 161.265 160.536 157.708 164.091C154.152 167.647 151.33 171.869 149.406 176.515C147.481 181.161 146.49 186.141 146.49 191.17H223.09C223.09 186.141 222.099 181.161 220.174 176.515C218.249 171.869 215.428 167.647 211.872 164.091C208.315 160.536 204.093 157.715 199.446 155.792C194.799 153.868 189.819 152.879 184.79 152.88V152.88Z" fill="#49494A"/>
<path d="M184.79 139.92V1" stroke="black" stroke-width="2" stroke-linecap="round" stroke-linejoin="round"/>
<path d="M485.19 574.68C485.19 577.05 483.8 592 486.57 593.38C489.34 594.76 519.79 595.6 521.17 594.21C522.55 592.82 523.38 589.92 522.17 589.09C520.96 588.26 509.17 585.91 507.57 584.8C505.97 583.69 503.76 577.8 504.57 574.68" fill="#1F161E"/>
<path d="M394.15 379.25L411.29 373.1C410.55 341.83 403.24 271.96 392.86 261.57C390.42 259.14 342.16 254.9 333.55 254.9C282.17 254.9 266.93 260.76 263.06 264.64C251.06 276.64 247.32 332.24 247.32 351.71C247.32 371.18 302.32 381.28 302.32 381.28L366.79 385.71C366.79 385.71 380.93 387.17 393.16 387.89C393.43 384.14 394.15 379.25 394.15 379.25Z" fill="#F9D883"/>
<path d="M445.22 397.38C449.91 395.99 496.55 388.38 506.71 398.38C516.87 408.38 548.85 551.75 548.85 555.05H523.1L488.34 480.24" fill="#1F161E"/>
<path d="M275.41 384.63C274.24 390.48 267.21 396.76 267.21 428.63C267.21 472.7 303.31 473.63 316.27 473.63C356.65 473.63 421.98 461.63 426.39 459.43C429.32 464.33 483.25 574.43 483.5 576.89H508.33C508.33 576.89 492.94 412.17 465.17 393.49C456.15 387.49 296.12 381.07 275.41 384.63Z" fill="#4D471A"/>
<path d="M420.81 352.41C414.29 352.41 408.91 353.96 394.15 356.86L393.38 385.1C407.38 379.46 410.63 371.62 414.69 371.62C424.83 371.62 430.13 376.85 436.12 376.85C440.3 376.85 447.82 373.57 447.82 369.11C447.82 359.77 428.89 352.41 420.81 352.41Z" fill="#8A5F4C"/>
<path d="M524.56 553.07C524.56 555.45 523.17 570.39 525.94 571.78C528.71 573.17 559.16 573.99 560.54 572.61C561.92 571.23 562.75 568.32 561.54 567.49C560.33 566.66 548.54 564.3 546.94 563.19C545.34 562.08 543.13 556.19 543.94 553.07" fill="#1F161E"/>
<path d="M342.64 261.55C342.64 265.32 320.75 265.43 320.75 261.55V230.89H342.64V261.55Z" fill="#8A5F4C"/>
<path d="M335.51 241C333.51 241 320.75 246.64 320.75 249.79V233.15C323.93 233.15 335.51 241 335.51 241Z" fill="#1F161E"/>
<path d="M339.74 242.3C354.376 242.3 366.24 230.436 366.24 215.8C366.24 201.164 354.376 189.3 339.74 189.3C325.104 189.3 313.24 201.164 313.24 215.8C313.24 230.436 325.104 242.3 339.74 242.3Z" fill="#8A5F4C"/>
<path d="M367.09 195C363.81 200.21 356.95 202.6 349.52 202.6C343.19 202.6 333.97 200.76 327.41 204.5C323.86 206.5 319.79 211.05 318.97 220.16C318.97 221.72 317.2 227.77 317.2 229.72C317.2 231.05 315.7 231.92 313.2 231.92C311.91 231.92 309.36 229.83 309.36 226.64C309.36 222.95 310.83 221.64 310.83 218.51C310.83 215.38 307 212.37 307 203.67C307 191.14 315 183.42 320.66 183.42C325.82 183.42 327.44 184.62 328.09 185.13C328.09 173.74 343.09 168.54 349.04 168.54C355.84 168.54 359.04 171.33 359.04 174.88C359.04 180.54 356.34 185.35 354.97 186.43C358.071 183.64 362.099 182.104 366.27 182.12C374.06 182.12 376.68 187.24 376.68 190.74C376.68 198.35 367.55 205.4 364.15 205.4C363.295 203.59 362.291 201.854 361.15 200.21" fill="#1F161E"/>
<path d="M319.79 224.95C322.91 224.95 325.44 222.42 325.44 219.3C325.44 216.18 322.91 213.65 319.79 213.65C316.67 213.65 314.14 216.18 314.14 219.3C314.14 222.42 316.67 224.95 319.79 224.95Z" fill="#8A5F4C"/>
<path d="M366.5 220.66C368.919 220.66 370.88 219.639 370.88 218.38C370.88 217.121 368.919 216.1 366.5 216.1C364.081 216.1 362.12 217.121 362.12 218.38C362.12 219.639 364.081 220.66 366.5 220.66Z" fill="#FA9E9F"/>
<path d="M338.95 220.66C341.369 220.66 343.33 219.639 343.33 218.38C343.33 217.121 341.369 216.1 338.95 216.1C336.531 216.1 334.57 217.121 334.57 218.38C334.57 219.639 336.531 220.66 338.95 220.66Z" fill="#FA9E9F"/>
<path d="M355.8 213.65C356.62 214.82 360.8 219.73 356.39 221.72" stroke="#1F161E" stroke-miterlimit="10" stroke-linecap="round"/>
<path d="M347.56 227.45C346.24 227.45 344.21 225.81 343.14 224.34" stroke="#1F161E" stroke-miterlimit="10" stroke-linecap="round"/>
<path d="M382.5 298.62C384.5 302.87 394.15 343.87 394.15 356.86" stroke="#1F161E" stroke-miterlimit="10" stroke-linecap="round"/>
<path d="M247.32 348.41C247.32 394.5 247.75 407.87 266.25 407.87C308.89 407.87 373.35 372.87 384.84 372.87C394.99 372.87 400.29 378.11 406.28 378.11C410.45 378.11 417.97 374.82 417.97 370.37C417.97 361.02 399.04 353.66 390.97 353.66C372.8 353.66 300.29 371.18 298.52 371.18C296.75 371.18 293.77 370.41 293.77 367.43C293.77 362.02 297.31 349.52 297.77 348.43L247.32 348.41Z" fill="#8A5F4C"/>
<path d="M308.42 308.21C307.2 311.72 297.69 347.99 296.59 352.41" stroke="#1F161E" stroke-miterlimit="10" stroke-linecap="round"/>
<path d="M669.458 588.747C670.177 591.481 672.977 593.115 675.712 592.396C678.447 591.678 680.081 588.878 679.362 586.143L628.163 391.401C627.444 388.666 624.644 387.032 621.909 387.751C619.175 388.47 617.541 391.27 618.26 394.004L669.458 588.747Z" fill="#969696"/>
<path d="M617.751 394.013C618.47 391.278 616.836 388.478 614.101 387.759C611.366 387.04 608.566 388.674 607.847 391.409L556.649 586.151C555.93 588.886 557.564 591.686 560.299 592.405C563.033 593.124 565.833 591.49 566.552 588.755L617.751 394.013Z" fill="#969696"/>
<path d="M547.102 394.011C547.821 391.277 546.187 388.477 543.453 387.758C540.718 387.039 537.918 388.673 537.199 391.408L486 586.15C485.281 588.885 486.915 591.685 489.65 592.404C492.385 593.123 495.185 591.489 495.904 588.754L547.102 394.011Z" fill="#D8D8D8"/>
<path d="M597.92 585.152C598.626 587.895 601.423 589.546 604.166 588.839C606.909 588.132 608.559 585.335 607.852 582.592L557.512 387.273C556.805 384.53 554.009 382.88 551.266 383.587C548.523 384.294 546.873 387.09 547.58 389.833L597.92 585.152Z" fill="#D8D8D8"/>
<path d="M258.681 394.017C259.4 391.282 257.766 388.482 255.032 387.763C252.297 387.044 249.497 388.678 248.778 391.413L197.579 586.155C196.86 588.89 198.494 591.69 201.229 592.409C203.964 593.128 206.764 591.494 207.483 588.759L258.681 394.017Z" fill="#969696"/>
<path d="M309.519 588.759C310.238 591.494 313.038 593.128 315.773 592.409C318.507 591.69 320.141 588.89 319.422 586.156L268.224 391.413C267.505 388.679 264.705 387.044 261.97 387.763C259.235 388.482 257.601 391.282 258.32 394.017L309.519 588.759Z" fill="#969696"/>
<path d="M649.27 378.14H154.1C151.598 378.14 149.57 380.168 149.57 382.67V388.76C149.57 391.262 151.598 393.29 154.1 393.29H649.27C651.772 393.29 653.8 391.262 653.8 388.76V382.67C653.8 380.168 651.772 378.14 649.27 378.14Z" fill="#D8D8D8"/>
<path d="M185.506 394.02C186.225 391.285 184.591 388.485 181.857 387.766C179.122 387.047 176.322 388.681 175.603 391.416L124.404 586.158C123.685 588.893 125.319 591.693 128.054 592.412C130.789 593.131 133.589 591.497 134.308 588.762L185.506 394.02Z" fill="#D8D8D8"/>
<path d="M236.344 588.76C237.063 591.494 239.862 593.128 242.597 592.409C245.332 591.691 246.966 588.891 246.247 586.156L195.048 391.414C194.329 388.679 191.53 387.045 188.795 387.764C186.06 388.483 184.426 391.283 185.145 394.017L236.344 588.76Z" fill="#D8D8D8"/>
<path d="M520.28 378.14H427.77L444.53 320.5C444.949 319.109 445.806 317.891 446.974 317.028C448.142 316.165 449.558 315.702 451.01 315.71H529.51C530.541 315.693 531.562 315.918 532.491 316.366C533.42 316.813 534.231 317.472 534.861 318.289C535.49 319.106 535.92 320.058 536.116 321.071C536.312 322.083 536.269 323.127 535.99 324.12L520.28 378.14Z" fill="black"/>
<path d="M485.38 352.58C488.506 352.58 491.04 350.046 491.04 346.92C491.04 343.794 488.506 341.26 485.38 341.26C482.254 341.26 479.72 343.794 479.72 346.92C479.72 350.046 482.254 352.58 485.38 352.58Z" fill="white"/>
<path d="M438.76 374.09H373.85V378.14H438.76V374.09Z" fill="black"/>
</g>
<defs>
<clipPath id="clip0_0_1">
<rect width="744.66" height="594.92" fill="white"/>
</clipPath>
</defs>
</svg>
